<?xml version="1.0" encoding="UTF-8"?>
<svg version="1.1" xmlns="http://www.w3.org/2000/svg" width="114" height="125">
<path d="M0 0 C2.34570312 1.11645508 2.34570312 1.11645508 4.78125 2.51953125 C6.15325562 3.30275757 6.15325562 3.30275757 7.55297852 4.10180664 C9.01175415 4.94859985 9.01175415 4.94859985 10.5 5.8125 C11.50796631 6.39056396 12.51593262 6.96862793 13.55444336 7.56420898 C15.65616093 8.76994584 17.7563206 9.97840198 19.85498047 11.18945312 C22.88751715 12.93524508 25.92809886 14.66589815 28.97265625 16.390625 C30.83598167 17.44783883 32.69926474 18.50512728 34.5625 19.5625 C35.42359375 20.05016846 36.2846875 20.53783691 37.171875 21.0402832 C37.98269531 21.50265381 38.79351562 21.96502441 39.62890625 22.44140625 C40.33088135 22.84045166 41.03285645 23.23949707 41.75610352 23.65063477 C42.49658936 24.09592529 43.2370752 24.54121582 44 25 C45.59231445 25.64400757 45.59231445 25.64400757 47.21679688 26.30102539 C51.198227 30.16196486 50.78438646 33.35909325 50.91062927 38.75216675 C50.90789505 40.0688736 50.90516083 41.38558044 50.90234375 42.7421875 C50.91401215 44.11216395 50.92701773 45.4821296 50.94129944 46.8520813 C50.96366668 49.72222065 50.96283134 52.59125307 50.94702148 55.46142578 C50.92964979 59.13040892 50.98037419 62.79484135 51.0500555 66.46307182 C51.0943833 69.29271677 51.09686883 72.12127553 51.08752632 74.95120621 C51.08980454 76.95765457 51.1313457 78.96393484 51.17356873 80.96994019 C51.03858961 89.83971587 51.03858961 89.83971587 48.14312744 93.07444763 C45.82844065 94.64986013 43.54846081 95.84764044 41 97 C39.92347168 97.63204346 38.84694336 98.26408691 37.73779297 98.9152832 C36.74924316 99.45499756 35.76069336 99.99471191 34.7421875 100.55078125 C33.62859863 101.16300537 32.51500977 101.77522949 31.36767578 102.40600586 C30.21509277 103.03514893 29.06250977 103.66429199 27.875 104.3125 C19.032762 109.1579745 10.30827416 114.11064673 1.8203125 119.55859375 C-1.26518719 121.13553196 -2.60124057 121.32203435 -6 121 C-8.34228516 119.95288086 -8.34228516 119.95288086 -10.7890625 118.46484375 C-11.718396 117.91038574 -12.64772949 117.35592773 -13.60522461 116.78466797 C-14.60175049 116.17510254 -15.59827637 115.56553711 -16.625 114.9375 C-23.5055105 110.76862882 -30.35954082 106.75229493 -37.55078125 103.15234375 C-39.40841765 102.2012425 -41.26440894 101.24699821 -43.12005615 100.29202271 C-44.90736203 99.39020663 -46.71761086 98.53433157 -48.52783203 97.67944336 C-56.31363624 93.63961763 -56.31363624 93.63961763 -57.95874023 89.7097168 C-58.30715275 86.42215509 -58.15902379 83.30505483 -58 80 C-58.01106257 78.23752076 -58.03468254 76.47509666 -58.06762695 74.71289062 C-58.16098744 69.57087401 -58.18569588 64.43161894 -58.18530273 59.28881836 C-58.18751128 56.04593187 -58.20578274 52.80337441 -58.22460938 49.56054688 C-58.22754004 47.48958449 -58.22952702 45.4186205 -58.23046875 43.34765625 C-58.23765427 42.3830397 -58.24483978 41.41842316 -58.25224304 40.42457581 C-58.22167566 31.46423179 -58.22167566 31.46423179 -56 28 C-53.56762695 26.16992188 -53.56762695 26.16992188 -50.48828125 24.46875 C-49.34818604 23.8286499 -48.20809082 23.1885498 -47.03344727 22.52905273 C-45.79343023 21.8521543 -44.55310774 21.17581518 -43.3125 20.5 C-42.04869832 19.79951895 -40.78560162 19.09776455 -39.52319336 18.39477539 C-37.59159746 17.32000818 -35.65919648 16.24691854 -33.72328186 15.1799469 C-29.51160609 12.85692507 -25.34783473 10.46796747 -21.203125 8.02734375 C-20.16373779 7.42019531 -19.12435059 6.81304687 -18.0534668 6.1875 C-16.09609818 5.04225323 -14.14416972 3.88764475 -12.19848633 2.72265625 C-11.3195874 2.21476563 -10.44068848 1.706875 -9.53515625 1.18359375 C-8.775979 0.73556396 -8.01680176 0.28753418 -7.23461914 -0.17407227 C-4.35602217 -1.23801781 -2.90782872 -0.91781607 0 0 Z M-9.90625 14.32421875 C-10.50497925 14.6674971 -11.1037085 15.01077545 -11.72058105 15.36445618 C-13.64821969 16.47012125 -15.57417289 17.57868317 -17.5 18.6875 C-20.00989111 20.12982257 -22.52045671 21.57096736 -25.03125 23.01171875 C-25.63582031 23.35886932 -26.24039063 23.7060199 -26.86328125 24.06369019 C-31.55186722 26.75239738 -36.26298646 29.39765471 -41 32 C-36.70304492 35.32744141 -36.70304492 35.32744141 -32 38 C-28.22629527 36.83534918 -25.17453175 34.92513087 -21.90234375 32.75 C-6.44983899 22.88995376 -6.44983899 22.88995376 -0.34765625 23.1640625 C2.83130322 24.794969 5.27163902 26.69254319 8 29 C9.92424792 30.31240438 11.87937023 31.5500552 13.86523438 32.76708984 C15.17964193 33.57342587 16.47666883 34.4089908 17.75195312 35.27587891 C20.86638376 37.28271273 22.48098893 38.08121445 26.1953125 37.5 C29.04762337 35.97453012 30.78115332 34.31800306 33 32 C17.88663971 23.02050799 17.88663971 23.02050799 2.6875 14.1875 C1.59824219 13.56230469 0.50898437 12.93710938 -0.61328125 12.29296875 C-4.66809491 10.09633484 -5.96090125 12.0558722 -9.90625 14.32421875 Z M-17.5 42.3125 C-18.20253906 42.71662109 -18.90507813 43.12074219 -19.62890625 43.53710938 C-20.29792969 43.93349609 -20.96695313 44.32988281 -21.65625 44.73828125 C-22.58147461 45.28029175 -22.58147461 45.28029175 -23.52539062 45.83325195 C-25.31421327 47.02971512 -25.31421327 47.02971512 -26 50 C-26.12025295 52.35192393 -26.17532335 54.70753531 -26.1875 57.0625 C-26.20167969 58.31160156 -26.21585938 59.56070313 -26.23046875 60.84765625 C-26.33812605 64.09765087 -26.33812605 64.09765087 -24 66 C-21.68637791 64.68944504 -19.37407322 63.3766597 -17.0625 62.0625 C-16.0734668 61.50272461 -16.0734668 61.50272461 -15.06445312 60.93164062 C-11.84167167 59.23037187 -11.84167167 59.23037187 -9 57 C-8.91348389 55.58429877 -8.89295096 54.164405 -8.90234375 52.74609375 C-8.90717773 51.46508789 -8.90717773 51.46508789 -8.91210938 50.15820312 C-8.92048828 49.26037109 -8.92886719 48.36253906 -8.9375 47.4375 C-8.94201172 46.53580078 -8.94652344 45.63410156 -8.95117188 44.70507812 C-8.96299775 42.46998686 -8.9794778 40.23502563 -9 38 C-11.74144321 38 -15.10553852 40.89559389 -17.5 42.3125 Z M3 39 C0.5375003 41.4624997 1.04574034 46.96792961 0.89648438 50.33569336 C1.0021848 53.72417758 1.19196078 56.07839707 3.4765625 58.68408203 C7.59923577 61.87419454 12.21086185 63.99882442 17 66 C19.43835668 64.00896808 19.43835668 64.00896808 19.1953125 60.0859375 C19.18200376 58.51550649 19.15813602 56.94513779 19.125 55.375 C19.11597656 54.57320312 19.10695313 53.77140625 19.09765625 52.9453125 C19.07406223 50.96341477 19.03819065 48.98167019 19 47 C16.71125827 45.66141476 14.41930344 44.32898986 12.125 43 C11.47402344 42.6184375 10.82304688 42.236875 10.15234375 41.84375 C6.79649799 39.72448844 6.79649799 39.72448844 3 39 Z M-46 42 C-49.54059464 65.9292085 -49.54059464 65.9292085 -43.85400391 88.29785156 C-38.34561997 93.17914529 -31.90311185 95.72164305 -24.97119141 97.98730469 C-21.01642723 99.3352391 -17.58310702 101.26017248 -14 103.375 C-12.33583718 104.25475274 -10.67041093 105.13216932 -9 106 C-7.82638226 101.96520961 -7.59051915 98.99605502 -9 95 C-12.5630124 91.677061 -16.99797951 89.58602919 -21.3046875 87.38671875 C-22.05661377 86.99266846 -22.80854004 86.59861816 -23.58325195 86.19262695 C-26.02540295 84.94053732 -26.02540295 84.94053732 -28.78198242 83.93823242 C-31.8322581 82.57849704 -33.76844019 81.50068278 -36 79 C-37.16746436 73.62943231 -36.87037413 68.39789776 -36.5625 62.9375 C-36.40706054 60.04963196 -36.31372777 57.16857642 -36.25390625 54.27734375 C-36.18502197 53.00109131 -36.1161377 51.72483887 -36.04516602 50.40991211 C-36.64626203 46.94297831 -36.64626203 46.94297831 -39.05465698 45.43728638 C-41.33135245 44.1654295 -43.60627339 43.03253375 -46 42 Z M31.72021484 44.91748047 C28.23549623 49.13613641 29.78354129 55.19301035 30.1703186 60.37121582 C31.19150169 76.10957818 31.19150169 76.10957818 27.0234375 81.60693359 C22.03812193 85.61698716 16.42317155 87.92631153 10.44628906 90.08300781 C7.06330147 91.35112173 4.70683033 92.5859217 2 95 C1.27895185 97.804777 1.27895185 97.804777 1.625 100.75 C1.67914063 101.73484375 1.73328125 102.7196875 1.7890625 103.734375 C1.85867187 104.48203125 1.92828125 105.2296875 2 106 C6.07822034 103.90352902 6.07822034 103.90352902 10.08813477 101.6809082 C14.28337359 99.28757952 18.28135965 97.53802541 22.89453125 96.0859375 C29.58505653 93.62140381 35.20483262 91.30111824 39 85 C42.51192855 71.41105291 40.28766959 55.79787492 39 42 C36.27431802 42 33.9496661 43.50729435 31.72021484 44.91748047 Z M-11.5625 70.375 C-12.27341797 70.7875 -12.98433594 71.2 -13.71679688 71.625 C-15.51312016 72.69280483 -17.26123695 73.84082463 -19 75 C-19 75.66 -19 76.32 -19 77 C-16.52589781 78.6317293 -14.06340341 80.14700164 -11.5 81.625 C-10.78457031 82.04523438 -10.06914063 82.46546875 -9.33203125 82.8984375 C-7.55853967 83.93888589 -5.77974734 84.97028904 -4 86 C-2.51886719 85.15115234 -2.51886719 85.15115234 -1.0078125 84.28515625 C0.28644206 83.54424241 1.58071379 82.80335855 2.875 82.0625 C3.52597656 81.68931641 4.17695312 81.31613281 4.84765625 80.93164062 C9.7734375 78.11328125 9.7734375 78.11328125 12 77 C12 76.34 12 75.68 12 75 C9.5472865 73.36485767 7.10780245 71.8518754 4.5625 70.375 C3.85544922 69.95476562 3.14839844 69.53453125 2.41992188 69.1015625 C-4.21012446 65.19332466 -5.1980908 66.59232471 -11.5625 70.375 Z " fill="#C8AE68" transform="translate(60,2)"/>
<path d="M0 0 C2.11456695 1.26156279 4.19557352 2.58019905 6.25 3.9375 C8.20541086 5.2023214 10.16680671 6.4548422 12.14160156 7.68920898 C13.44236631 8.50787099 14.7291094 9.34934269 15.99902344 10.21508789 C19.19807478 12.27007612 20.70870308 13.04134593 24.5078125 12.3125 C27.36177676 10.95174652 27.36177676 10.95174652 30.25 8.9375 C32.4375 9.3125 32.4375 9.3125 34.25 9.9375 C32.6 10.9275 30.95 11.9175 29.25 12.9375 C29.745 15.4125 29.745 15.4125 30.25 17.9375 C32.23 17.6075 34.21 17.2775 36.25 16.9375 C34.99874616 20.69126152 33.6847596 21.17823289 30.25 22.9375 C29.59 22.9375 28.93 22.9375 28.25 22.9375 C28.32069702 24.34443115 28.32069702 24.34443115 28.39282227 25.77978516 C28.54677884 29.2802943 28.65925999 32.77718441 28.74438477 36.27978516 C28.78949166 37.79143198 28.85080227 39.30268934 28.92895508 40.81298828 C29.55731017 53.27331079 29.55731017 53.27331079 26.54272461 57.11083984 C24.18405305 58.71220613 21.87168367 59.82329063 19.25 60.9375 C17.63613234 61.84723777 16.03047852 62.77170874 14.43359375 63.7109375 C12.85375982 64.58212164 11.27172453 65.44932581 9.6875 66.3125 C8.86958984 66.76238281 8.05167969 67.21226563 7.20898438 67.67578125 C5.22462025 68.76660129 3.23759477 69.85257772 1.25 70.9375 C1.25 74.2375 1.25 77.5375 1.25 80.9375 C1.9613208 80.51863525 2.6726416 80.09977051 3.40551758 79.66821289 C6.62280614 77.77589116 9.84261427 75.88789881 13.0625 74 C14.18205078 73.34064453 15.30160156 72.68128906 16.45507812 72.00195312 C18.06479492 71.05932617 18.06479492 71.05932617 19.70703125 70.09765625 C20.69678955 69.51636963 21.68654785 68.93508301 22.70629883 68.33618164 C25.25 66.9375 25.25 66.9375 28.25 65.9375 C30.25 68.9375 30.25 68.9375 29.875 71.625 C29.66875 72.388125 29.4625 73.15125 29.25 73.9375 C27.765 74.4325 27.765 74.4325 26.25 74.9375 C27.57 75.9275 28.89 76.9175 30.25 77.9375 C29.53457031 78.33541748 28.81914063 78.73333496 28.08203125 79.14331055 C25.38986267 80.64198298 22.69874861 82.14252805 20.00830078 83.64428711 C18.28627108 84.60476938 16.56306956 85.56314974 14.83984375 86.52148438 C9.43457425 89.54021676 4.10250412 92.54158767 -0.96875 96.10083008 C-3.43688182 97.26013487 -5.0412857 97.2589495 -7.75 96.9375 C-10.47314453 95.69995117 -10.47314453 95.69995117 -13.3828125 93.98046875 C-14.43597656 93.36236328 -15.48914063 92.74425781 -16.57421875 92.10742188 C-17.66347656 91.45322266 -18.75273438 90.79902344 -19.875 90.125 C-20.97199219 89.48240234 -22.06898437 88.83980469 -23.19921875 88.17773438 C-32.53506012 82.65068719 -32.53506012 82.65068719 -34.75 79.9375 C-35.0625 77.375 -35.0625 77.375 -34.75 74.9375 C-33.76 73.9475 -33.76 73.9475 -32.75 72.9375 C-33.74 71.6175 -34.73 70.2975 -35.75 68.9375 C-32.21512404 68.9375 -30.89263493 69.79996695 -27.86328125 71.5625 C-26.92548828 72.10390625 -25.98769531 72.6453125 -25.02148438 73.203125 C-23.55678711 74.06164062 -23.55678711 74.06164062 -22.0625 74.9375 C-20.58040039 75.79601562 -20.58040039 75.79601562 -19.06835938 76.671875 C-16.62550124 78.08802464 -14.18628682 79.51008458 -11.75 80.9375 C-11.4004768 77.53854866 -11.23607153 74.32487753 -11.75 70.9375 C-14.29464424 68.39802627 -14.29464424 68.39802627 -17.75 67.0625 C-21.125 65.5078125 -21.125 65.5078125 -23.75 63.9375 C-23.75 62.6175 -23.75 61.2975 -23.75 59.9375 C-23.09 59.9375 -22.43 59.9375 -21.75 59.9375 C-21.95625 58.865 -22.1625 57.7925 -22.375 56.6875 C-22.7376191 53.06130904 -22.73362069 51.85458924 -20.75 48.9375 C-19.76 48.9375 -18.77 48.9375 -17.75 48.9375 C-18.08 46.6275 -18.41 44.3175 -18.75 41.9375 C-21.72 42.4325 -21.72 42.4325 -24.75 42.9375 C-24.42 41.9475 -24.09 40.9575 -23.75 39.9375 C-21.74007294 39.05797668 -19.71707104 38.20819232 -17.6875 37.375 C-14.28060346 35.73257841 -14.28060346 35.73257841 -11.75 32.9375 C-10.17463509 27.11342367 -11.07442868 20.84874908 -11.75 14.9375 C-13.4 15.2675 -15.05 15.5975 -16.75 15.9375 C-17.03875 14.98875 -17.3275 14.04 -17.625 13.0625 C-18.51825109 9.88538422 -18.51825109 9.88538422 -20.75 7.9375 C-14.92055439 1.81118448 -8.53187957 -4.20829195 0 0 Z M1.25 14.9375 C-1.2124997 17.3999997 -0.70425966 22.90542961 -0.85351562 26.27319336 C-0.7478152 29.66167758 -0.55803922 32.01589707 1.7265625 34.62158203 C5.84923577 37.81169454 10.46086185 39.93632442 15.25 41.9375 C17.68835668 39.94646808 17.68835668 39.94646808 17.4453125 36.0234375 C17.43200376 34.45300649 17.40813602 32.88263779 17.375 31.3125 C17.36597656 30.51070312 17.35695313 29.70890625 17.34765625 28.8828125 C17.32406223 26.90091477 17.28819065 24.91917019 17.25 22.9375 C14.96125827 21.59891476 12.66930344 20.26648986 10.375 18.9375 C9.72402344 18.5559375 9.07304688 18.174375 8.40234375 17.78125 C5.04649799 15.66198844 5.04649799 15.66198844 1.25 14.9375 Z M-13.3125 46.3125 C-14.02341797 46.725 -14.73433594 47.1375 -15.46679688 47.5625 C-17.26312016 48.63030483 -19.01123695 49.77832463 -20.75 50.9375 C-20.75 51.5975 -20.75 52.2575 -20.75 52.9375 C-18.27589781 54.5692293 -15.81340341 56.08450164 -13.25 57.5625 C-12.53457031 57.98273438 -11.81914063 58.40296875 -11.08203125 58.8359375 C-9.30853967 59.87638589 -7.52974734 60.90778904 -5.75 61.9375 C-4.26886719 61.08865234 -4.26886719 61.08865234 -2.7578125 60.22265625 C-1.46355794 59.48174241 -0.16928621 58.74085855 1.125 58 C1.77597656 57.62681641 2.42695312 57.25363281 3.09765625 56.86914062 C8.0234375 54.05078125 8.0234375 54.05078125 10.25 52.9375 C10.25 52.2775 10.25 51.6175 10.25 50.9375 C7.7972865 49.30235767 5.35780245 47.7893754 2.8125 46.3125 C2.10544922 45.89226562 1.39839844 45.47203125 0.66992188 45.0390625 C-5.96012446 41.13082466 -6.9480908 42.52982471 -13.3125 46.3125 Z " fill="#E8DC90" transform="translate(61.75,26.0625)"/>
<path d="M0 0 C6.99154646 1.01256455 12.87880391 4.2534635 18 9 C19.84775001 13.72065431 19.73655078 18.10996311 19.5859375 23.1328125 C19.5845337 24.49706267 19.58759296 25.86132398 19.59487915 27.22555542 C19.59598992 30.0735777 19.55255441 32.91623976 19.47509766 35.76318359 C19.37841293 39.40130329 19.37978968 43.03132275 19.41274071 46.67032051 C19.42977129 49.48325058 19.40196485 52.29434345 19.36009598 55.1069603 C19.33638428 57.09534694 19.34444689 59.08403117 19.3531189 61.07254028 C19.05419371 69.87088798 19.05419371 69.87088798 16.03497314 73.10467529 C13.74789064 74.64381196 11.49400071 75.83505388 9 77 C7.78927294 77.80892872 6.58071955 78.62112628 5.375 79.4375 C1.37350763 81.29004276 -0.7771232 81.03417391 -5 80 C-4.2884375 79.4121875 -4.2884375 79.4121875 -3.5625 78.8125 C-1.00216079 75.84250652 -1 72.81328762 -1 69 C1.31 67.68 3.62 66.36 6 65 C6 50.81 6 36.62 6 22 C4.02 22.33 2.04 22.66 0 23 C-0.66 22.34 -1.32 21.68 -2 21 C-2 18 -2 18 -0.4375 15.5625 C1.25585824 13.14608941 1.25585824 13.14608941 0.6875 10.6875 C0.3471875 9.8521875 0.3471875 9.8521875 0 9 C-0.66 9 -1.32 9 -2 9 C-1.505 7.6078125 -1.505 7.6078125 -1 6.1875 C0.14967004 3.07970709 0.14967004 3.07970709 0 0 Z " fill="#9B6F34" transform="translate(92,22)"/>
<path d="M0 0 C0.66 0.33 1.32 0.66 2 1 C2 2.32 2 3.64 2 5 C2.99 5.66 3.98 6.32 5 7 C5.33 7.99 5.66 8.98 6 10 C8.01508358 10.73323796 8.01508358 10.73323796 10 11 C10 13.31 10 15.62 10 18 C8.68 18.33 7.36 18.66 6 19 C6 18.34 6 17.68 6 17 C5.34 17.33 4.68 17.66 4 18 C3.70239346 23.99524551 3.485223 29.98616616 3.34082031 35.98706055 C3.28062104 38.02558273 3.19883122 40.06358976 3.09472656 42.1003418 C2.47446674 51.64464666 2.47446674 51.64464666 4 61 C6.92411791 64.07634848 9.25277487 65.37085269 13.20605469 66.84936523 C16 68 16 68 17.31738281 70.02368164 C17.54264648 70.6758667 17.76791016 71.32805176 18 72 C18.495 72.99 18.495 72.99 19 74 C18.01 74.495 18.01 74.495 17 75 C17 76.98 17 78.96 17 81 C11.78296885 78.95003818 6.76226199 76.63113099 1.75 74.125 C0.82703125 73.70992188 -0.0959375 73.29484375 -1.046875 72.8671875 C-7.40008545 69.61583862 -7.40008545 69.61583862 -8.82348633 65.78198242 C-9.1618624 62.48831468 -9.08952553 59.31203578 -9 56 C-9.01816489 54.23591105 -9.04439534 52.47189522 -9.07666016 50.70800781 C-9.16313083 45.56778877 -9.18569574 40.42970679 -9.18530273 35.28881836 C-9.18751128 32.04593187 -9.20578274 28.80337441 -9.22460938 25.56054688 C-9.22754004 23.48958449 -9.22952702 21.4186205 -9.23046875 19.34765625 C-9.23765427 18.3830397 -9.24483978 17.41842316 -9.25224304 16.42457581 C-9.22337307 7.96180062 -9.22337307 7.96180062 -7 4 C-4.78375578 2.12873719 -2.67482704 1.24188398 0 0 Z " fill="#9A6B33" transform="translate(11,26)"/>
<path d="M0 0 C2.52026367 1.21166992 2.52026367 1.21166992 5.16796875 2.73046875 C6.14443359 3.28669922 7.12089844 3.84292969 8.12695312 4.41601562 C9.13693359 5.00060547 10.14691406 5.58519531 11.1875 6.1875 C12.6734668 7.03538086 12.6734668 7.03538086 14.18945312 7.90039062 C16.16492898 9.03126959 18.13595506 10.16995965 20.10229492 11.31665039 C22.03733578 12.44076419 23.98301629 13.54675534 25.9387207 14.63452148 C27.29936646 15.40711304 27.29936646 15.40711304 28.6875 16.1953125 C29.90566406 16.87424561 29.90566406 16.87424561 31.1484375 17.56689453 C33 19 33 19 33.8125 22.6875 C33.02803777 25.88569219 32.63880909 27.13084356 30 29 C30.66 29 31.32 29 32 29 C32 29.66 32 30.32 32 31 C28.21169804 29.57911676 24.77255343 27.84129677 21.25390625 25.84765625 C20.16916016 25.23599609 19.08441406 24.62433594 17.96679688 23.99414062 C16.84337891 23.35669922 15.71996094 22.71925781 14.5625 22.0625 C12.33535287 20.8021168 10.10751016 19.54296178 7.87890625 18.28515625 C6.8947876 17.72707275 5.91066895 17.16898926 4.89672852 16.59399414 C3.94080811 16.06797607 2.9848877 15.54195801 2 15 C0.98655518 14.39365723 -0.02688965 13.78731445 -1.07104492 13.16259766 C-3.88344976 11.70560339 -3.88344976 11.70560339 -6.42529297 12.66918945 C-7.18986816 13.14573975 -7.95444336 13.62229004 -8.7421875 14.11328125 C-9.58007812 14.61923828 -10.41796875 15.12519531 -11.28125 15.64648438 C-12.56515625 16.47116211 -12.56515625 16.47116211 -13.875 17.3125 C-14.75414062 17.85068359 -15.63328125 18.38886719 -16.5390625 18.94335938 C-18.70691979 20.27470652 -20.85851777 21.62677532 -23 23 C-24.32 22.01 -25.64 21.02 -27 20 C-26.67 17.69 -26.34 15.38 -26 13 C-26.66 12.67 -27.32 12.34 -28 12 C-24.28438346 9.78884432 -20.55059892 7.61039613 -16.8125 5.4375 C-15.75740234 4.80908203 -14.70230469 4.18066406 -13.61523438 3.53320312 C-12.08286133 2.64858398 -12.08286133 2.64858398 -10.51953125 1.74609375 C-9.58214111 1.19622803 -8.64475098 0.6463623 -7.67895508 0.07983398 C-4.49020527 -1.2054882 -3.22396677 -1.09583107 0 0 Z " fill="#EEE398" transform="translate(60,2)"/>
<path d="M0 0 C0.515625 0.2475 1.03125 0.495 1.5625 0.75 C-0.9125 2.235 -0.9125 2.235 -3.4375 3.75 C-3.1075 5.4 -2.7775 7.05 -2.4375 8.75 C-0.4575 8.42 1.5225 8.09 3.5625 7.75 C2.31124616 11.50376152 0.9972596 11.99073289 -2.4375 13.75 C-3.0975 13.75 -3.7575 13.75 -4.4375 13.75 C-4.39036865 14.6879541 -4.3432373 15.6259082 -4.29467773 16.59228516 C-4.14072116 20.0927943 -4.02824001 23.58968441 -3.94311523 27.09228516 C-3.89800834 28.60393198 -3.83669773 30.11518934 -3.75854492 31.62548828 C-3.12708533 44.14737328 -3.12708533 44.14737328 -6.34033203 48.07714844 C-9.80981095 50.45650414 -13.28852698 51.99884067 -17.4375 52.75 C-19.625 52.125 -19.625 52.125 -21.4375 50.75 C-22.5 48.5 -22.5 48.5 -22.4375 45.75 C-20.97416288 43.46353576 -19.32764605 41.73234829 -17.4375 39.75 C-18.4275 39.42 -19.4175 39.09 -20.4375 38.75 C-19.7775 37.43 -19.1175 36.11 -18.4375 34.75 C-17.7775 34.75 -17.1175 34.75 -16.4375 34.75 C-16.1075 27.82 -15.7775 20.89 -15.4375 13.75 C-17.9125 12.76 -17.9125 12.76 -20.4375 11.75 C-21.80115283 10.79175747 -23.14544169 9.80278825 -24.4375 8.75 C-22.4575 8.75 -20.4775 8.75 -18.4375 8.75 C-18.9325 7.615625 -19.4275 6.48125 -19.9375 5.3125 C-21.4375 1.75 -21.4375 1.75 -21.4375 0.75 C-14.870713 1.52256318 -14.870713 1.52256318 -11.9375 3.0625 C-9.52468782 4.01530751 -9.52468782 4.01530751 -7.71484375 2.953125 C-6.49634458 2.19770726 -5.2864256 1.42825601 -4.0859375 0.64453125 C-2.4375 -0.25 -2.4375 -0.25 0 0 Z " fill="#BFA260" transform="translate(94.4375,35.25)"/>
<path d="M0 0 C2.06550684 1.51714219 3.34952275 3.17272163 4.765625 5.296875 C2.265625 10.296875 2.265625 10.296875 -0.234375 15.296875 C0.755625 15.626875 1.745625 15.956875 2.765625 16.296875 C2.76038818 16.90684326 2.75515137 17.51681152 2.74975586 18.14526367 C2.72889165 20.92495685 2.71593487 23.70463351 2.703125 26.484375 C2.69474609 27.44408203 2.68636719 28.40378906 2.67773438 29.39257812 C2.67451172 30.32392578 2.67128906 31.25527344 2.66796875 32.21484375 C2.66273193 33.06844482 2.65749512 33.9220459 2.65209961 34.80151367 C2.76983177 37.38934247 3.19455456 39.77349453 3.765625 42.296875 C3.19714844 42.53921875 2.62867187 42.7815625 2.04296875 43.03125 C-1.81115696 44.70415932 -5.55141969 46.40820941 -9.171875 48.546875 C-12.234375 50.296875 -12.234375 50.296875 -14.234375 50.296875 C-14.564375 47.986875 -14.894375 45.676875 -15.234375 43.296875 C-18.204375 43.791875 -18.204375 43.791875 -21.234375 44.296875 C-20.904375 43.306875 -20.574375 42.316875 -20.234375 41.296875 C-18.22444794 40.41735168 -16.20144604 39.56756732 -14.171875 38.734375 C-10.76497846 37.09195341 -10.76497846 37.09195341 -8.234375 34.296875 C-6.65901009 28.47279867 -7.55880368 22.20812408 -8.234375 16.296875 C-9.884375 16.626875 -11.534375 16.956875 -13.234375 17.296875 C-13.523125 16.348125 -13.811875 15.399375 -14.109375 14.421875 C-15.00262609 11.24475922 -15.00262609 11.24475922 -17.234375 9.296875 C-14.33877856 6.1690845 -11.44567776 4.01203177 -7.734375 1.921875 C-6.7959375 1.37789062 -5.8575 0.83390625 -4.890625 0.2734375 C-2.234375 -0.703125 -2.234375 -0.703125 0 0 Z " fill="#EFE597" transform="translate(58.234375,24.703125)"/>
<path d="M0 0 C-0.04125 1.093125 -0.0825 2.18625 -0.125 3.3125 C-0.32074666 7.08892229 -0.32074666 7.08892229 2 10 C-0.12437451 11.31352171 -2.24946592 12.62585713 -4.375 13.9375 C-4.97828125 14.31068359 -5.5815625 14.68386719 -6.203125 15.06835938 C-10.7734375 17.88671875 -10.7734375 17.88671875 -13 19 C-11.90241493 19.84198307 -10.79664683 20.67330671 -9.6875 21.5 C-9.07261719 21.9640625 -8.45773438 22.428125 -7.82421875 22.90625 C-5.92566995 24.25711283 -5.92566995 24.25711283 -3 24 C-4.11232877 33.53424658 -4.11232877 33.53424658 -5 36 C-5.99 36.495 -5.99 36.495 -7 37 C-7.65772428 40.02934491 -7.65772428 40.02934491 -8 43 C-7.34 43 -6.68 43 -6 43 C-4.75355114 52.87571023 -4.75355114 52.87571023 -6 58 C-6.40150143 62.98037177 -6.40150143 62.98037177 -4.5 67.4375 C-4.005 67.953125 -3.51 68.46875 -3 69 C-8.75 68.25 -8.75 68.25 -11 66 C-11.17488254 63.56255103 -11.23177405 61.2406392 -11.1953125 58.8046875 C-11.1924826 58.09724396 -11.18965271 57.38980042 -11.18673706 56.66091919 C-11.17553137 54.3987749 -11.15042679 52.13702485 -11.125 49.875 C-11.11497067 48.34245363 -11.10584474 46.80990106 -11.09765625 45.27734375 C-11.07559086 41.51807699 -11.04105896 37.75910536 -11 34 C-12.1446875 33.566875 -12.1446875 33.566875 -13.3125 33.125 C-16 32 -16 32 -19 30 C-19 29.34 -19 28.68 -19 28 C-18.34 28 -17.68 28 -17 28 C-17 28.66 -17 29.32 -17 30 C-13.68539295 28.29107501 -13.68539295 28.29107501 -13.3125 24.875 C-13.1578125 23.451875 -13.1578125 23.451875 -13 22 C-14.98 21.67 -16.96 21.34 -19 21 C-19 20.01 -19 19.02 -19 18 C-19.515625 17.54625 -20.03125 17.0925 -20.5625 16.625 C-22 15 -22 15 -22.109375 12.73046875 C-20.33364905 8.35993199 -16.69242057 6.90879942 -12.6875 4.6875 C-11.91470703 4.23310547 -11.14191406 3.77871094 -10.34570312 3.31054688 C-4.55597979 0 -4.55597979 0 0 0 Z " fill="#B8995A" transform="translate(34,15)"/>
<path d="M0 0 C0.99 0.99 1.98 1.98 3 3 C2.6875 5.6875 2.6875 5.6875 2 8 C1.01 8.33 0.02 8.66 -1 9 C0.32 9.99 1.64 10.98 3 12 C-0.78774694 14.17357444 -4.58082029 16.3376772 -8.375 18.5 C-9.45523438 19.12003906 -10.53546875 19.74007812 -11.6484375 20.37890625 C-12.6796875 20.96542969 -13.7109375 21.55195312 -14.7734375 22.15625 C-15.72653809 22.70087891 -16.67963867 23.24550781 -17.66162109 23.80664062 C-20 25 -20 25 -22 25 C-22 24.34 -22 23.68 -22 23 C-21.34 22.67 -20.68 22.34 -20 22 C-20.55144911 17.91927658 -20.91330796 17.08669204 -24 14 C-16.08 9.38 -8.16 4.76 0 0 Z " fill="#D1BD78" transform="translate(89,92)"/>
<path d="M0 0 C0.33 0.99 0.66 1.98 1 3 C1.66 3.33 2.32 3.66 3 4 C2.99476318 5.11036621 2.98952637 6.22073242 2.98413086 7.36474609 C2.96606015 11.47590329 2.95456038 15.58705696 2.94506836 19.69824219 C2.94003289 21.47917267 2.93320419 23.260099 2.92456055 25.04101562 C2.91246058 27.59766665 2.90676391 30.15426312 2.90234375 32.7109375 C2.89718246 33.50994476 2.89202118 34.30895203 2.88670349 35.13217163 C2.7866125 39.19691905 2.7866125 39.19691905 4 43 C-2.75 47 -2.75 47 -5 47 C-5.33 44.69 -5.66 42.38 -6 40 C-8.97 40.495 -8.97 40.495 -12 41 C-11.67 40.01 -11.34 39.02 -11 38 C-8.99007294 37.12047668 -6.96707104 36.27069232 -4.9375 35.4375 C-1.53060346 33.79507841 -1.53060346 33.79507841 1 31 C2.57536491 25.17592367 1.67557132 18.91124908 1 13 C-0.65 13.33 -2.3 13.66 -4 14 C-4.28875 13.05125 -4.5775 12.1025 -4.875 11.125 C-5.76825109 7.94788422 -5.76825109 7.94788422 -8 6 C-5.51047079 3.33264727 -3.36591866 1.44253657 0 0 Z " fill="#DFD491" transform="translate(49,28)"/>
<path d="M0 0 C6.42590496 0.92990832 11.93840523 4.01064337 17 8 C17.9375 11.75 17.9375 11.75 17 15 C15.5 16.9375 15.5 16.9375 14 18 C14.66 18 15.32 18 16 18 C16 18.66 16 19.32 16 20 C11.60616294 18.40376856 7.71004193 16.21975667 3.6875 13.875 C3.04232422 13.50246094 2.39714844 13.12992188 1.73242188 12.74609375 C0.15324055 11.83367787 -1.42361864 10.91724491 -3 10 C-2.34 9.67 -1.68 9.34 -1 9 C-1.33 8.01 -1.66 7.02 -2 6 C-1.01 5.01 -0.02 4.02 1 3 C0.67 2.01 0.34 1.02 0 0 Z " fill="#C1A869" transform="translate(76,13)"/>
<path d="M0 0 C2.73013099 2.66128538 3.00546253 4.07701268 3.28051758 7.95483398 C3.25169348 9.55230368 3.20529321 11.14951984 3.14453125 12.74609375 C3.12283371 13.59422134 3.10113617 14.44234894 3.07878113 15.31617737 C3.02957029 17.10756939 2.97277674 18.89876696 2.90893555 20.68969727 C2.81298112 23.42379125 2.74345636 26.15760805 2.67773438 28.89257812 C2.62656936 30.63546344 2.5738852 32.37830497 2.51953125 34.12109375 C2.49856888 34.9358165 2.47760651 35.75053925 2.45600891 36.58995056 C2.29114249 40.87173023 1.73625855 44.0286657 0 48 C0.33 48.66 0.66 49.32 1 50 C0.67 50.99 0.34 51.98 0 53 C0.66 53 1.32 53 2 53 C2 53.66 2 54.32 2 55 C-4.03076923 59.06153846 -4.03076923 59.06153846 -8.9375 58.75 C-9.948125 58.5025 -10.95875 58.255 -12 58 C-11.2884375 57.4121875 -11.2884375 57.4121875 -10.5625 56.8125 C-8.00216079 53.84250652 -8 50.81328762 -8 47 C-6.86361084 46.54206055 -5.72722168 46.08412109 -4.55639648 45.61230469 C-2.20402462 44.25551898 -1.19125912 43.58332496 -0.33547974 40.9732666 C-0.09151918 38.36319394 -0.0570367 35.82441336 -0.09765625 33.203125 C-0.08536484 32.25435486 -0.07307343 31.30558472 -0.06040955 30.32806396 C-0.028646 27.30125867 -0.04496609 24.27688211 -0.0625 21.25 C-0.04939314 19.19659191 -0.03315438 17.14320125 -0.01367188 15.08984375 C0.02721253 10.05937663 0.02498201 5.03055387 0 0 Z " fill="#97784B" transform="translate(99,44)"/>
<path d="M0 0 C15.74487472 8.261959 15.74487472 8.261959 23 13 C22.01 13.99 21.02 14.98 20 16 C20 15.34 20 14.68 20 14 C19.236875 14.061875 18.47375 14.12375 17.6875 14.1875 C15 14 15 14 13.1875 12.5 C12.795625 12.005 12.40375 11.51 12 11 C12 12.32 12 13.64 12 15 C14.67642489 17.18490007 14.67642489 17.18490007 17 17 C17.33 17.99 17.66 18.98 18 20 C14.67901406 21.08239542 13.23308257 21.08992018 9.921875 19.8125 C1.56822895 15.03898797 1.56822895 15.03898797 -0.0703125 12.04296875 C-0.375 10.1875 -0.375 10.1875 0 7 C0.66 6.34 1.32 5.68 2 5 C1.01 3.68 0.02 2.36 -1 1 C-0.67 0.67 -0.34 0.34 0 0 Z " fill="#C7B775" transform="translate(27,94)"/>
<path d="M0 0 C3.5875213 1.33250791 6.8364623 2.830717 10 5 C10 7 10 7 8 9.125 C7.34 9.74375 6.68 10.3625 6 11 C7.32 11.33 8.64 11.66 10 12 C8.7315625 13.3303125 8.7315625 13.3303125 7.4375 14.6875 C5.16914939 17.33719169 5.16914939 17.33719169 5.1875 20.875 C5.455625 21.57625 5.72375 22.2775 6 23 C6.99 23.33 7.98 23.66 9 24 C9 24.66 9 25.32 9 26 C5.58168085 28.5393228 3.24223102 29.3636198 -1 29 C-1.68707555 26.50935112 -2 24.62113708 -2 22 C-2.66 21.34 -3.32 20.68 -4 20 C1.75 16 1.75 16 4 16 C3.649375 15.21625 3.29875 14.4325 2.9375 13.625 C2.628125 12.75875 2.31875 11.8925 2 11 C2.33 10.34 2.66 9.68 3 9 C2.01 8.67 1.02 8.34 0 8 C0.99 7.01 1.98 6.02 3 5 C2.2575 4.319375 2.2575 4.319375 1.5 3.625 C0 2 0 2 0 0 Z " fill="#D3C380" transform="translate(68,63)"/>
<path d="M0 0 C0.99 0.33 1.98 0.66 3 1 C1.515 2.485 1.515 2.485 0 4 C0.680625 4.2475 1.36125 4.495 2.0625 4.75 C5.56865083 6.24197908 8.71620368 8.06835511 12 10 C11.01 10.99 10.02 11.98 9 13 C9.33 13.886875 9.66 14.77375 10 15.6875 C11.65048396 21.31309323 11.15703422 27.19845814 11 33 C10.67 33 10.34 33 10 33 C10.06703125 32.28714844 10.1340625 31.57429688 10.203125 30.83984375 C10.25644302 27.53856971 10.10061703 25.12895721 9 22 C6.00177388 19.64761146 3.05243907 18.11494011 -0.41015625 16.53515625 C-1.26480469 16.02855469 -2.11945312 15.52195312 -3 15 C-3 13.68 -3 12.36 -3 11 C-2.34 11 -1.68 11 -1 11 C-1.20625 9.9275 -1.4125 8.855 -1.625 7.75 C-1.9876191 4.12380904 -1.98362069 2.91708924 0 0 Z " fill="#DED28D" transform="translate(41,75)"/>
<path d="M0 0 C0.55171875 0.22558594 1.1034375 0.45117188 1.671875 0.68359375 C-0.803125 2.16859375 -0.803125 2.16859375 -3.328125 3.68359375 C-2.998125 5.33359375 -2.668125 6.98359375 -2.328125 8.68359375 C-0.348125 8.35359375 1.631875 8.02359375 3.671875 7.68359375 C2.42062116 11.43735527 1.1066346 11.92432664 -2.328125 13.68359375 C-2.988125 13.68359375 -3.648125 13.68359375 -4.328125 13.68359375 C-4.328125 24.24359375 -4.328125 34.80359375 -4.328125 45.68359375 C-5.318125 46.17859375 -5.318125 46.17859375 -6.328125 46.68359375 C-6.32288818 46.01827637 -6.31765137 45.35295898 -6.31225586 44.66748047 C-6.29137247 41.63119464 -6.2784288 38.59492397 -6.265625 35.55859375 C-6.25724609 34.511875 -6.24886719 33.46515625 -6.24023438 32.38671875 C-6.22437044 27.37371634 -6.24677494 22.60615746 -7.328125 17.68359375 C-7.4725 17.02359375 -7.616875 16.36359375 -7.765625 15.68359375 C-9.15577999 10.19828041 -9.15577999 10.19828041 -12.328125 5.68359375 C-10.75465324 4.64762475 -9.16890954 3.63027643 -7.578125 2.62109375 C-6.69640625 2.05261719 -5.8146875 1.48414063 -4.90625 0.8984375 C-2.328125 -0.31640625 -2.328125 -0.31640625 0 0 Z " fill="#AF9458" transform="translate(94.328125,35.31640625)"/>
<path d="M0 0 C8.33627809 2.1496063 8.33627809 2.1496063 11 5.5625 C11.33 6.366875 11.66 7.17125 12 8 C12.33 8.66 12.66 9.32 13 10 C12.01 10.495 12.01 10.495 11 11 C11 12.98 11 14.96 11 17 C0.52767528 13.19188192 0.52767528 13.19188192 -2.4375 8.9375 C-3 7 -3 7 -3 4 C-1.5 1.8125 -1.5 1.8125 0 0 Z " fill="#AB884B" transform="translate(17,90)"/>
<path d="M0 0 C-0.04125 1.093125 -0.0825 2.18625 -0.125 3.3125 C-0.32074666 7.08892229 -0.32074666 7.08892229 2 10 C0.40089132 11.00806851 -1.20448262 12.00620385 -2.8125 13 C-4.15248047 13.8353125 -4.15248047 13.8353125 -5.51953125 14.6875 C-8 16 -8 16 -11 16 C-10.79375 15.401875 -10.5875 14.80375 -10.375 14.1875 C-9.69328085 11.71549154 -9.69328085 11.71549154 -12 9 C-14.05003955 7.80767387 -14.05003955 7.80767387 -16 7 C-14.0898586 5.82268014 -12.17162056 4.65848895 -10.25 3.5 C-9.18265625 2.8503125 -8.1153125 2.200625 -7.015625 1.53125 C-4 0 -4 0 0 0 Z " fill="#BDA569" transform="translate(34,15)"/>
<path d="M0 0 C6.625 0.75 6.625 0.75 10 3 C9.70703125 5.01822917 9.4140625 7.03645833 9.12109375 9.0546875 C8.8315703 11.08140667 8.8315703 11.08140667 10 13 C9.34 13 8.68 13 8 13 C8.33 13.99 8.66 14.98 9 16 C9.04427173 17.58271427 9.03932534 19.1671551 9 20.75 C8.95057706 24.96330529 9.27885937 28.85344139 10 33 C8.515 33.495 8.515 33.495 7 34 C6.0415664 31.12469919 5.93343613 29.70950069 6.12109375 26.76953125 C6.16943359 25.96708984 6.21777344 25.16464844 6.26757812 24.33789062 C6.32365234 23.50451172 6.37972656 22.67113281 6.4375 21.8125 C6.48970703 20.96751953 6.54191406 20.12253906 6.59570312 19.25195312 C6.72523689 17.16763701 6.86193177 15.08376818 7 13 C6.23300781 12.87753906 5.46601562 12.75507812 4.67578125 12.62890625 C1.33835015 11.84448814 -0.46147633 10.24840668 -3 8 C-1.02 8 0.96 8 3 8 C2.505 6.865625 2.01 5.73125 1.5 4.5625 C0 1 0 1 0 0 Z " fill="#C5AD6B" transform="translate(73,36)"/>
<path d="M0 0 C0.33 0 0.66 0 1 0 C0.99363525 1.28165039 0.98727051 2.56330078 0.98071289 3.88378906 C0.96627991 8.64028842 0.99759649 13.39557885 1.04272461 18.15185547 C1.05586222 20.21008187 1.05660053 22.26842636 1.04467773 24.32666016 C1.02968493 27.28666789 1.05931255 30.24338694 1.09765625 33.203125 C1.08340103 34.12305237 1.06914581 35.04297974 1.05445862 35.99078369 C1.11176656 38.52097904 1.21104765 40.59375874 2 43 C4.24580659 45.07391224 6.10715118 45.83424653 9 47 C7 48 7 48 4 48 C2.29467677 49.94009522 2.29467677 49.94009522 1 52 C1.83333333 54.16666667 1.83333333 54.16666667 4 55 C2.515 55.495 2.515 55.495 1 56 C-1.6875 54.5625 -1.6875 54.5625 -4 53 C-3.67 49.37 -3.34 45.74 -3 42 C-1.515 41.505 -1.515 41.505 0 41 C-0.17402344 39.85660156 -0.34804687 38.71320313 -0.52734375 37.53515625 C-1.34360925 30.18876679 -0.84797194 22.80527865 -0.5625 15.4375 C-0.50916661 13.93687013 -0.45642738 12.43621902 -0.40429688 10.93554688 C-0.2763813 7.29009421 -0.1404248 3.64499476 0 0 Z " fill="#9F773E" transform="translate(13,44)"/>
<path d="M0 0 C0.33 1.98 0.66 3.96 1 6 C0.34 6 -0.32 6 -1 6 C-1 6.66 -1 7.32 -1 8 C-0.34 8.33 0.32 8.66 1 9 C-0.98 9.99 -0.98 9.99 -3 11 C-2.01 12.485 -2.01 12.485 -1 14 C-3.875 14.125 -3.875 14.125 -7 14 C-7.66 13.34 -8.32 12.68 -9 12 C-9 11.34 -9 10.68 -9 10 C-9.7734375 9.3503125 -9.7734375 9.3503125 -10.5625 8.6875 C-12 7 -12 7 -11.875 4.4375 C-11 2 -11 2 -8 0 C-4.66657937 -0.91669067 -3.34350146 -1.11450049 0 0 Z " fill="#A9864B" transform="translate(24,23)"/>
<path d="M0 0 C0.845625 0.4125 1.69125 0.825 2.5625 1.25 C2.5625 3.89 2.5625 6.53 2.5625 9.25 C-0.4075 10.9 -3.3775 12.55 -6.4375 14.25 C-7.4275 13.26 -8.4175 12.27 -9.4375 11.25 C-9.125 7.5625 -9.125 7.5625 -8.4375 4.25 C-9.0975 3.92 -9.7575 3.59 -10.4375 3.25 C-4.28365385 -0.93461538 -4.28365385 -0.93461538 0 0 Z " fill="#D3C17D" transform="translate(42.4375,10.75)"/>
<path d="M0 0 C4.36141799 1.58597018 8.18619689 3.35967477 12 6 C12.9375 9.25 12.9375 9.25 13 12 C12.01 12.33 11.02 12.66 10 13 C10 13.99 10 14.98 10 16 C7.1875 15.8125 7.1875 15.8125 4 15 C1.16703492 11.60044191 0.88988188 9.29460655 1 5 C0.08431094 2.74867483 0.08431094 2.74867483 -1 1 C-0.67 0.67 -0.34 0.34 0 0 Z " fill="#D7C581" transform="translate(65,6)"/>
<path d="M0 0 C2 1 2 1 4 3 C4.71927295 5.31765729 5.3909893 7.65095874 6 10 C4.3811004 11.03048037 2.75467511 12.04914678 1.125 13.0625 C0.22007813 13.63097656 -0.68484375 14.19945312 -1.6171875 14.78515625 C-2.40351562 15.18605469 -3.18984375 15.58695313 -4 16 C-4.66 15.67 -5.32 15.34 -6 15 C-5.67 12.69 -5.34 10.38 -5 8 C-6.32 8 -7.64 8 -9 8 C-9 7.01 -9 6.02 -9 5 C-7.54735962 4.1361871 -6.0876837 3.28419546 -4.625 2.4375 C-3.40683594 1.72400391 -3.40683594 1.72400391 -2.1640625 0.99609375 C-1.44992188 0.66738281 -0.73578125 0.33867188 0 0 Z " fill="#CFBD79" transform="translate(40,33)"/>
<path d="M0 0 C1.51953125 1.33203125 1.51953125 1.33203125 3 3 C2.6875 5.6875 2.6875 5.6875 2 8 C1.01 8.33 0.02 8.66 -1 9 C0.32 9.99 1.64 10.98 3 12 C-0.96 13.98 -0.96 13.98 -5 16 C-5.66 15.34 -6.32 14.68 -7 14 C-7.33 14 -7.66 14 -8 14 C-8 11.69 -8 9.38 -8 7 C-9.32 7.33 -10.64 7.66 -12 8 C-9.69716746 5.45868642 -7.32686207 3.92889705 -4.3125 2.3125 C-3.50425781 1.87550781 -2.69601563 1.43851562 -1.86328125 0.98828125 C-1.24839844 0.66214844 -0.63351563 0.33601563 0 0 Z " fill="#B6995F" transform="translate(89,92)"/>
<path d="M0 0 C2.0625 1.5 2.0625 1.5 4 4 C4.32368932 6.87274274 3.98674023 9.28646436 3 12 C0.8125 14.125 0.8125 14.125 -2 15 C-5.3125 14.1875 -5.3125 14.1875 -8 13 C-8.6875 10.6875 -8.6875 10.6875 -9 8 C-6.91158154 4.6831001 -3.61993507 4.04575902 0 3 C0 2.01 0 1.02 0 0 Z " fill="#C9B16B" transform="translate(81,73)"/>
<path d="M0 0 C4.80358345 0.58225254 8.06335186 2.27462821 12 5 C12.9375 7.75 12.9375 7.75 13 10 C12.34 10 11.68 10 11 10 C11 10.99 11 11.98 11 13 C10.01 12.67 9.02 12.34 8 12 C8 10.68 8 9.36 8 8 C6.68 8.33 5.36 8.66 4 9 C4 9.99 4 10.98 4 12 C2.68 12 1.36 12 0 12 C0 11.01 0 10.02 0 9 C-0.66 9 -1.32 9 -2 9 C-1.505 7.6078125 -1.505 7.6078125 -1 6.1875 C0.14967004 3.07970709 0.14967004 3.07970709 0 0 Z " fill="#997642" transform="translate(92,22)"/>
<path d="M0 0 C1.8125 1.125 1.8125 1.125 3 3 C3.375 6 3.375 6 3 9 C1.5 10.875 1.5 10.875 0 12 C0.66 12 1.32 12 2 12 C2 12.66 2 13.32 2 14 C-1.92671231 12.6910959 -4.43926031 11.2923796 -7 8 C-7.75 4.75 -7.75 4.75 -8 2 C-4.76746204 -0.15502531 -3.74849077 -0.46856135 0 0 Z " fill="#B69959" transform="translate(90,19)"/>
<path d="M0 0 C1.81612488 0.95144598 3.62781081 1.91136933 5.4375 2.875 C6.44683594 3.40867187 7.45617187 3.94234375 8.49609375 4.4921875 C11 6 11 6 12 8 C11.01 8 10.02 8 9 8 C9.33 8.66 9.66 9.32 10 10 C9.0625 12.625 9.0625 12.625 8 15 C5.69 14.67 3.38 14.34 1 14 C0.375 10.625 0.375 10.625 0 7 C0.66 6.34 1.32 5.68 2 5 C1.01 3.68 0.02 2.36 -1 1 C-0.67 0.67 -0.34 0.34 0 0 Z " fill="#C2A969" transform="translate(27,94)"/>
<path d="M0 0 C3.77545388 1.09068668 6.47043472 1.9083091 9 5 C8.01 5.495 8.01 5.495 7 6 C7.66 8.31 8.32 10.62 9 13 C1.49230769 13.36923077 1.49230769 13.36923077 -1 11.5 C-1.33 11.005 -1.66 10.51 -2 10 C-1.34 10 -0.68 10 0 10 C-0.33 9.01 -0.66 8.02 -1 7 C-0.71395102 5.32457024 -0.38218767 3.65614657 0 2 C0 1.34 0 0.68 0 0 Z " fill="#D8C379" transform="translate(67,31)"/>
<path d="M0 0 C1.98 0.99 3.96 1.98 6 3 C6 3.99 6 4.98 6 6 C7.32 6.66 8.64 7.32 10 8 C9.649375 8.5775 9.29875 9.155 8.9375 9.75 C7.83267452 12.40158116 8.19819904 13.32733014 9 16 C8.67 16.66 8.34 17.32 8 18 C5 16.1875 5 16.1875 2 14 C2 13.01 2 12.02 2 11 C1.34 11 0.68 11 0 11 C0.33 10.34 0.66 9.68 1 9 C1 8.01 1 7.02 1 6 C1 5.01 1 4.02 1 3 C0.67 2.01 0.34 1.02 0 0 Z " fill="#DED089" transform="translate(62,59)"/>
<path d="M0 0 C0.721875 0.144375 1.44375 0.28875 2.1875 0.4375 C3.5796875 0.7159375 3.5796875 0.7159375 5 1 C6.66666667 1.33333333 8.33333333 1.66666667 10 2 C9 10.57142857 9 10.57142857 8 14 C6.68 13.67 5.36 13.34 4 13 C4.33 12.67 4.66 12.34 5 12 C3.4198632 9.84526801 1.89353366 7.89353366 0 6 C-1 3 -1 3 0 0 Z " fill="#BB9F5E" transform="translate(21,37)"/>
<path d="M0 0 C3.5875213 1.33250791 6.8364623 2.830717 10 5 C10 7 10 7 8 9.125 C7.34 9.74375 6.68 10.3625 6 11 C7.32 11.33 8.64 11.66 10 12 C6.67692308 16.8 6.67692308 16.8 3.25 17.8125 C2.5075 17.874375 1.765 17.93625 1 18 C1.33 17.34 1.66 16.68 2 16 C2.66 16 3.32 16 4 16 C3.649375 15.21625 3.29875 14.4325 2.9375 13.625 C2.628125 12.75875 2.31875 11.8925 2 11 C2.33 10.34 2.66 9.68 3 9 C2.01 8.67 1.02 8.34 0 8 C0.99 7.01 1.98 6.02 3 5 C2.2575 4.319375 2.2575 4.319375 1.5 3.625 C0 2 0 2 0 0 Z " fill="#D2BE7D" transform="translate(68,63)"/>
<path d="M0 0 C4.875 1.875 4.875 1.875 6 3 C6.09396057 4.93306498 6.11743517 6.86958838 6.11352539 8.80493164 C6.11344986 10.04614273 6.11337433 11.28735382 6.11329651 12.56617737 C6.10818911 13.9308374 6.1029731 15.29549702 6.09765625 16.66015625 C6.095792 18.04878183 6.09436813 19.43740807 6.09336853 20.82603455 C6.08954387 24.48721115 6.07971403 28.1483483 6.06866455 31.80950928 C6.05844932 35.54292263 6.05387067 39.27634234 6.04882812 43.00976562 C6.03809171 50.33986177 6.02101591 57.66992536 6 65 C5.01 65.495 5.01 65.495 4 66 C3.97462258 58.13460988 3.95712154 50.26923034 3.94506836 42.40380859 C3.94060843 39.72865887 3.93322168 37.05356266 3.92456055 34.37841797 C3.91241656 30.53091759 3.9067537 26.68345356 3.90234375 22.8359375 C3.89718246 21.64197357 3.89202118 20.44800964 3.88670349 19.21786499 C3.88662796 18.09715607 3.88655243 16.97644714 3.88647461 15.82177734 C3.884254 14.84026703 3.88203339 13.85875671 3.87974548 12.84750366 C4.00718105 9.8299601 4.4453517 6.96635449 5 4 C4.360625 3.896875 3.72125 3.79375 3.0625 3.6875 C2.381875 3.460625 1.70125 3.23375 1 3 C0.67 2.01 0.34 1.02 0 0 Z " fill="#856337" transform="translate(104,28)"/>
<path d="M0 0 C0.99 0.33 1.98 0.66 3 1 C1.515 2.485 1.515 2.485 0 4 C0.804375 4.28875 1.60875 4.5775 2.4375 4.875 C5 6 5 6 6 8 C4.68 8 3.36 8 2 8 C2.59861742 10.35171131 3.26924352 12.6859378 4 15 C4.66 15.33 5.32 15.66 6 16 C5.34 16 4.68 16 4 16 C4 16.66 4 17.32 4 18 C2.02 17.34 0.04 16.68 -2 16 C-2.33 14.35 -2.66 12.7 -3 11 C-2.34 11 -1.68 11 -1 11 C-1.20625 9.9275 -1.4125 8.855 -1.625 7.75 C-1.9876191 4.12380904 -1.98362069 2.91708924 0 0 Z " fill="#D1C283" transform="translate(41,75)"/>
<path d="M0 0 C-0.10828125 0.91265625 -0.10828125 0.91265625 -0.21875 1.84375 C-1.10824048 10.24449341 -1.09524389 18.565624 -1 27 C-1.99 26.67 -2.98 26.34 -4 26 C-3.96519531 25.03578125 -3.93039063 24.0715625 -3.89453125 23.078125 C-3.86746094 21.81484375 -3.84039062 20.5515625 -3.8125 19.25 C-3.77769531 17.99703125 -3.74289063 16.7440625 -3.70703125 15.453125 C-4.02307641 11.72800608 -4.72292751 10.7891126 -7 8 C-7.19859596 5.10693989 -6.61464975 2.88412575 -6 0 C-3.50907189 -1.24546405 -2.58919267 -0.7767578 0 0 Z " fill="#C9AB67" transform="translate(36,41)"/>
<path d="M0 0 C0.66 0.33 1.32 0.66 2 1 C1.34 3.31 0.68 5.62 0 8 C-0.66 8 -1.32 8 -2 8 C-2.33 8.66 -2.66 9.32 -3 10 C-2.34 10.33 -1.68 10.66 -1 11 C-1 11.66 -1 12.32 -1 13 C-2.98 13.99 -4.96 14.98 -7 16 C-7 13.69 -7 11.38 -7 9 C-7.99 9 -8.98 9 -10 9 C-10 8.01 -10 7.02 -10 6 C-7.8828125 4.359375 -7.8828125 4.359375 -5.125 2.75 C-3.76761719 1.93789062 -3.76761719 1.93789062 -2.3828125 1.109375 C-1.20332031 0.56023438 -1.20332031 0.56023438 0 0 Z " fill="#E3D287" transform="translate(51,3)"/>
<path d="M0 0 C0.12375 0.969375 0.2475 1.93875 0.375 2.9375 C0.58125 3.948125 0.7875 4.95875 1 6 C1.66 6.33 2.32 6.66 3 7 C1.74874616 10.75376152 0.4347596 11.24073289 -3 13 C-3.66 13 -4.32 13 -5 13 C-5.144375 12.236875 -5.28875 11.47375 -5.4375 10.6875 C-5.9632594 7.91827092 -5.9632594 7.91827092 -7 5 C-2.25 0 -2.25 0 0 0 Z " fill="#C9B16F" transform="translate(81,99)"/>
<path d="M0 0 C2.53524446 1.01409778 3.77139002 1.61497266 5.1875 4 C5.455625 4.66 5.72375 5.32 6 6 C6.33 6.66 6.66 7.32 7 8 C6.01 8.495 6.01 8.495 5 9 C5 10.98 5 12.96 5 15 C2.625 14.3125 2.625 14.3125 0 13 C-1.3125 10.375 -1.3125 10.375 -2 8 C-1.34 7.34 -0.68 6.68 0 6 C-0.66 5.01 -1.32 4.02 -2 3 C-1.34 2.01 -0.68 1.02 0 0 Z " fill="#B6995A" transform="translate(23,92)"/>
<path d="M0 0 C0.33 0 0.66 0 1 0 C0.99363525 1.28165039 0.98727051 2.56330078 0.98071289 3.88378906 C0.96627991 8.64028842 0.99759649 13.39557885 1.04272461 18.15185547 C1.05586222 20.21008187 1.05660053 22.26842636 1.04467773 24.32666016 C1.02968493 27.28666789 1.05931255 30.24338694 1.09765625 33.203125 C1.08340103 34.12305237 1.06914581 35.04297974 1.05445862 35.99078369 C1.11176656 38.52097904 1.21104765 40.59375874 2 43 C4.24580659 45.07391224 6.10715118 45.83424653 9 47 C5.6741652 48.6629174 2.45128723 46.94632069 -1 46 C-1.07336144 35.69475607 -0.84895607 25.42271705 -0.5 15.125 C-0.45161485 13.64714221 -0.40343675 12.16927763 -0.35546875 10.69140625 C-0.23935443 7.12752303 -0.12047885 3.56373866 0 0 Z " fill="#97784A" transform="translate(13,44)"/>
<path d="M0 0 C6.52307692 0.61538462 6.52307692 0.61538462 8.9375 2.5625 C9.288125 3.036875 9.63875 3.51125 10 4 C8.02 4.99 8.02 4.99 6 6 C6 7.32 6 8.64 6 10 C5.67 10.66 5.34 11.32 5 12 C1.64404172 11.40072174 -0.37801226 10.15377564 -3 8 C-1.02 8 0.96 8 3 8 C2.505 6.865625 2.01 5.73125 1.5 4.5625 C0 1 0 1 0 0 Z " fill="#CBB670" transform="translate(73,36)"/>
<path d="M0 0 C0.66 0 1.32 0 2 0 C2 0.66 2 1.32 2 2 C3.98 1.34 5.96 0.68 8 0 C9.58645357 3.17290713 9.12078213 6.58825384 9.09765625 10.0703125 C9.0962413 10.86654022 9.09482635 11.66276794 9.09336853 12.48312378 C9.08776345 15.0304538 9.07521014 17.57769647 9.0625 20.125 C9.05748565 21.85025915 9.05292263 23.57551967 9.04882812 25.30078125 C9.03779237 29.53388791 9.02052436 33.76692914 9 38 C8.67 38 8.34 38 8 38 C8 27.44 8 16.88 8 6 C5.525 5.01 5.525 5.01 3 4 C2.01 3.34 1.02 2.68 0 2 C0 1.34 0 0.68 0 0 Z " fill="#A08A60" transform="translate(15,43)"/>
<path d="M0 0 C0.79953138 3.28696233 1.09658936 4.71023192 0 8 C1.98 7.67 3.96 7.34 6 7 C-0.6392663 12.03668478 -0.6392663 12.03668478 -4.6875 11.625 C-5.780625 11.41875 -6.87375 11.2125 -8 11 C-7.525625 10.608125 -7.05125 10.21625 -6.5625 9.8125 C-4.62151251 7.56095452 -4.30046129 5.9294976 -4 3 C-4.33 2.34 -4.66 1.68 -5 1 C-2 0 -2 0 0 0 Z " fill="#AC8C50" transform="translate(95,91)"/>
<path d="M0 0 C0.66 0.33 1.32 0.66 2 1 C0.87548273 3.9719385 -0.22293791 6.33440687 -2 9 C-1.6878236 11.64632287 -1.6878236 11.64632287 -1 14 C-1.99 14.33 -2.98 14.66 -4 15 C-4.33 12.69 -4.66 10.38 -5 8 C-6.98 8.33 -8.96 8.66 -11 9 C-9.73948004 5.21844011 -8.43553394 4.74381633 -5.0625 2.75 C-4.16660156 2.20859375 -3.27070312 1.6671875 -2.34765625 1.109375 C-1.57292969 0.74328125 -0.79820313 0.3771875 0 0 Z " fill="#DACC8B" transform="translate(48,60)"/>
<path d="M0 0 C2.28964059 4.94080338 2.28964059 4.94080338 1.46484375 7.95703125 C0.71434788 9.67095437 -0.13679232 11.33998524 -1 13 C-1.99 13 -2.98 13 -4 13 C-3.79375 12.401875 -3.5875 11.80375 -3.375 11.1875 C-2.69328085 8.71549154 -2.69328085 8.71549154 -5 6 C-7.05003955 4.80767387 -7.05003955 4.80767387 -9 4 C-2.25 0 -2.25 0 0 0 Z " fill="#B89A58" transform="translate(27,18)"/>
<path d="M0 0 C0 3.11257569 -0.17361624 5.10765685 -1 8 C-0.34 8.33 0.32 8.66 1 9 C-1.31 9.66 -3.62 10.32 -6 11 C-5.814375 10.38125 -5.62875 9.7625 -5.4375 9.125 C-4.76313824 6.95839822 -4.76313824 6.95839822 -6 5 C-5.67 4.01 -5.34 3.02 -5 2 C-6.32 2.33 -7.64 2.66 -9 3 C-5.83583464 -0.30799106 -4.50236011 -1.35070803 0 0 Z " fill="#A68047" transform="translate(100,89)"/>
<path d="M0 0 C0 0.66 0 1.32 0 2 C-0.639375 2.28875 -1.27875 2.5775 -1.9375 2.875 C-4.15206079 3.82823451 -4.15206079 3.82823451 -5 6 C-3.68 6 -2.36 6 -1 6 C-1.61277612 8.96175123 -2.25372522 10.38058783 -4 13 C-5.32 12.67 -6.64 12.34 -8 12 C-7.67 9.69 -7.34 7.38 -7 5 C-7.66 4.67 -8.32 4.34 -9 4 C-2.25 0 -2.25 0 0 0 Z " fill="#CEB772" transform="translate(41,10)"/>
<path d="M0 0 C1.65 0.33 3.3 0.66 5 1 C4.01 2.485 4.01 2.485 3 4 C3.99 5.65 4.98 7.3 6 9 C5.34 9 4.68 9 4 9 C4 9.99 4 10.98 4 12 C2.68 12 1.36 12 0 12 C0 11.01 0 10.02 0 9 C-0.66 9 -1.32 9 -2 9 C-1.505 7.6078125 -1.505 7.6078125 -1 6.1875 C0.14967004 3.07970709 0.14967004 3.07970709 0 0 Z " fill="#AC884B" transform="translate(92,22)"/>
<path d="M0 0 C0 0.99 0 1.98 0 3 C-0.99 3 -1.98 3 -3 3 C-2.67 3.99 -2.34 4.98 -2 6 C-2 6.66 -2 7.32 -2 8 C-1.67 8.66 -1.34 9.32 -1 10 C-1.33 10.66 -1.66 11.32 -2 12 C-1.01 12.33 -0.02 12.66 1 13 C-0.65 13.33 -2.3 13.66 -4 14 C-4.433125 12.576875 -4.433125 12.576875 -4.875 11.125 C-5.76825109 7.94788422 -5.76825109 7.94788422 -8 6 C-5.51047079 3.33264727 -3.36591866 1.44253657 0 0 Z " fill="#DCCD8B" transform="translate(49,28)"/>
<path d="M0 0 C0.99 0 1.98 0 3 0 C4.0161692 4.62921525 3.83796731 8.34462607 3 13 C1.02 12.01 -0.96 11.02 -3 10 C-2.34 9.67 -1.68 9.34 -1 9 C-1.33 8.01 -1.66 7.02 -2 6 C-1.01 5.01 -0.02 4.02 1 3 C0.67 2.01 0.34 1.02 0 0 Z " fill="#CAB474" transform="translate(76,13)"/>
<path d="M0 0 C2.6875 0.3125 2.6875 0.3125 5 1 C5.66 3.31 6.32 5.62 7 8 C5.02 8.33 3.04 8.66 1 9 C1 6.69 1 4.38 1 2 C-0.32 2.33 -1.64 2.66 -3 3 C-1.8125 1.4375 -1.8125 1.4375 0 0 Z " fill="#BFA664" transform="translate(80,97)"/>
<path d="M0 0 C3.77545388 1.09068668 6.47043472 1.9083091 9 5 C7.68 5 6.36 5 5 5 C4.67 5.66 4.34 6.32 4 7 C3.01 7 2.02 7 1 7 C1.33 8.98 1.66 10.96 2 13 C0.68 12.01 -0.64 11.02 -2 10 C-1.34 10 -0.68 10 0 10 C-0.33 9.01 -0.66 8.02 -1 7 C-0.71395102 5.32457024 -0.38218767 3.65614657 0 2 C0 1.34 0 0.68 0 0 Z " fill="#D7C788" transform="translate(67,31)"/>
<path d="M0 0 C1.98 0 3.96 0 6 0 C5.67 2.97 5.34 5.94 5 9 C3.68 9 2.36 9 1 9 C0.14670459 5.90680414 0 3.20663885 0 0 Z " fill="#E7D78A" transform="translate(46,31)"/>
<path d="M0 0 C1.32 1.32 2.64 2.64 4 4 C3.67 4.66 3.34 5.32 3 6 C3.33 6.99 3.66 7.98 4 9 C3.01 9.66 2.02 10.32 1 11 C1.66 11 2.32 11 3 11 C3 11.66 3 12.32 3 13 C0.97954558 12.39816251 -1.02111039 11.72693904 -3 11 C-3.33 10.34 -3.66 9.68 -4 9 C-3.01 8.34 -2.02 7.68 -1 7 C-0.67 6.34 -0.34 5.68 0 5 C-0.33 4.01 -0.66 3.02 -1 2 C-0.67 1.34 -0.34 0.68 0 0 Z " fill="#E8DB8F" transform="translate(61,59)"/>
<path d="M0 0 C0.625 2.3125 0.625 2.3125 1 5 C0.01 6.485 0.01 6.485 -1 8 C-2.32 7.67 -3.64 7.34 -5 7 C-5 6.01 -5 5.02 -5 4 C-5.66 3.34 -6.32 2.68 -7 2 C-4 0 -4 0 0 0 Z " fill="#DCCA84" transform="translate(71,81)"/>
<path d="M0 0 C3 2 3 2 4 4 C4.042721 5.66611905 4.04063832 7.33382885 4 9 C4 9.99 4 10.98 4 12 C1.37812506 10.95125002 0.20628639 10.35068687 -1.25 7.875 C-1.4975 7.25625 -1.745 6.6375 -2 6 C-1.34 6 -0.68 6 0 6 C-0.2784375 4.7934375 -0.2784375 4.7934375 -0.5625 3.5625 C-0.706875 2.716875 -0.85125 1.87125 -1 1 C-0.67 0.67 -0.34 0.34 0 0 Z " fill="#E3D78D" transform="translate(63,7)"/>
<path d="M0 0 C2.31 0.66 4.62 1.32 7 2 C2.25 5.875 2.25 5.875 0 7 C0.02320313 7.62648438 0.04640625 8.25296875 0.0703125 8.8984375 C0.08835938 9.71570313 0.10640625 10.53296875 0.125 11.375 C0.14820313 12.18710938 0.17140625 12.99921875 0.1953125 13.8359375 C0 16 0 16 -2 18 C-2.05406122 16.06280622 -2.09282025 14.12518079 -2.125 12.1875 C-2.14820313 11.10855469 -2.17140625 10.02960938 -2.1953125 8.91796875 C-2 6 -2 6 0 3 C0 2.01 0 1.02 0 0 Z " fill="#DCD496" transform="translate(63,90)"/>
<path d="M0 0 C1.98 0.495 1.98 0.495 4 1 C3.67 1.66 3.34 2.32 3 3 C3.66 3 4.32 3 5 3 C6 6 6 6 5 9 C2 8 2 8 0 6 C-1 3 -1 3 0 0 Z " fill="#B6974F" transform="translate(21,37)"/>
<path d="M0 0 C3.63 1.98 7.26 3.96 11 6 C10.01 6.99 9.02 7.98 8 9 C8 8.34 8 7.68 8 7 C6.8553125 7.1546875 6.8553125 7.1546875 5.6875 7.3125 C4.800625 7.209375 3.91375 7.10625 3 7 C1.18116991 4.6167054 0 3.04181663 0 0 Z " fill="#D5C989" transform="translate(39,101)"/>
<path d="M0 0 C1.3921875 0.3403125 1.3921875 0.3403125 2.8125 0.6875 C2.4825 2.3375 2.1525 3.9875 1.8125 5.6875 C-2.74134615 6.05673077 -2.74134615 6.05673077 -5 4.1875 C-5.391875 3.6925 -5.78375 3.1975 -6.1875 2.6875 C-4.14987265 -0.14253799 -3.59070275 -0.35202968 0 0 Z " fill="#EEE6A4" transform="translate(57.1875,117.3125)"/>
<path d="M0 0 C0.66 0 1.32 0 2 0 C2.28875 1.134375 2.5775 2.26875 2.875 3.4375 C3.24625 4.613125 3.6175 5.78875 4 7 C4.66 7.33 5.32 7.66 6 8 C5.34 8 4.68 8 4 8 C4 8.66 4 9.32 4 10 C2.68 9.67 1.36 9.34 0 9 C-0.84454356 5.62182575 -1.10844919 3.32534757 0 0 Z " fill="#D9C87F" transform="translate(41,83)"/>
<path d="M0 0 C0.66 0.33 1.32 0.66 2 1 C1.34 3.31 0.68 5.62 0 8 C-1.32 8 -2.64 8 -4 8 C-3.6875 5.125 -3.6875 5.125 -3 2 C-2.01 1.34 -1.02 0.68 0 0 Z " fill="#A17E47" transform="translate(16,23)"/>
<path d="M0 0 C0.99 0.33 1.98 0.66 3 1 C2.01 3.31 1.02 5.62 0 8 C-1.65 6.35 -3.3 4.7 -5 3 C-2.6875 1.4375 -2.6875 1.4375 0 0 Z " fill="#D8C984" transform="translate(70,103)"/>
<path d="M0 0 C-1.25125384 3.75376152 -2.5652404 4.24073289 -6 6 C-6.66 6 -7.32 6 -8 6 C-8.33 5.01 -8.66 4.02 -9 3 C-8.67 2.34 -8.34 1.68 -8 1 C-5.2303041 0.27113266 -2.87137415 0 0 0 Z " fill="#A78856" transform="translate(98,43)"/>
<path d="M0 0 C-0.33 1.65 -0.66 3.3 -1 5 C-3.60582371 5.93065133 -4.64198224 6.14917407 -7.25 5.0625 C-7.8275 4.711875 -8.405 4.36125 -9 4 C-2.25 0 -2.25 0 0 0 Z " fill="#AF945C" transform="translate(27,18)"/>
<path d="M0 0 C0.66 0.33 1.32 0.66 2 1 C0.7934375 1.61875 0.7934375 1.61875 -0.4375 2.25 C-3.14109718 3.73452331 -3.14109718 3.73452331 -3.8125 6.1875 C-3.874375 6.785625 -3.93625 7.38375 -4 8 C-5.32 8 -6.64 8 -8 8 C-7.9375 6.25 -7.9375 6.25 -7 4 C-4.74876994 2.27481113 -2.59865097 1.23093993 0 0 Z " fill="#8A6B41" transform="translate(11,26)"/>
<path d="M0 0 C0.268125 0.639375 0.53625 1.27875 0.8125 1.9375 C1.88667752 4.33131686 1.88667752 4.33131686 5 5 C-0.2734375 8.22265625 -0.2734375 8.22265625 -2 9 C-2.66 8.67 -3.32 8.34 -4 8 C-2.35 7.34 -0.7 6.68 1 6 C1 5.34 1 4.68 1 4 C-0.32 3.67 -1.64 3.34 -3 3 C-2.34 3 -1.68 3 -1 3 C-0.67 2.01 -0.34 1.02 0 0 Z " fill="#E3D898" transform="translate(49,10)"/>
<path d="M0 0 C2.29013653 3.4352048 2.17842973 4.985331 2 9 C1.01 9.33 0.02 9.66 -1 10 C-1.66 9.34 -2.32 8.68 -3 8 C-2.01 5.36 -1.02 2.72 0 0 Z " fill="#D2BA72" transform="translate(38,77)"/>
<path d="M0 0 C0.99 0.33 1.98 0.66 3 1 C3.33 2.98 3.66 4.96 4 7 C3.34 7 2.68 7 2 7 C1.67 7.66 1.34 8.32 1 9 C0.67 8.34 0.34 7.68 0 7 C0.33 6.34 0.66 5.68 1 5 C0.34 4.67 -0.32 4.34 -1 4 C-1 1 -1 1 0 0 Z " fill="#B68F4C" transform="translate(21,22)"/>
<path d="M0 0 C0.598125 0.20625 1.19625 0.4125 1.8125 0.625 C1.1525 1.945 0.4925 3.265 -0.1875 4.625 C-1.8375 4.625 -3.4875 4.625 -5.1875 4.625 C-5.1875 3.635 -5.1875 2.645 -5.1875 1.625 C-2.1875 -0.375 -2.1875 -0.375 0 0 Z " fill="#DACB8A" transform="translate(46.1875,7.375)"/>
<path d="M0 0 C2.97 0.495 2.97 0.495 6 1 C0.85714286 5.42857143 0.85714286 5.42857143 -3 6 C-3 5.34 -3 4.68 -3 4 C-2.34 3.67 -1.68 3.34 -1 3 C-0.67 2.01 -0.34 1.02 0 0 Z " fill="#D0C688" transform="translate(70,111)"/>
<path d="M0 0 C0.66 0 1.32 0 2 0 C2 5.94 2 11.88 2 18 C1.01 17.67 0.02 17.34 -1 17 C-0.67 11.39 -0.34 5.78 0 0 Z " fill="#C3AE7D" transform="translate(33,50)"/>
<path d="M0 0 C0.99 0.33 1.98 0.66 3 1 C3 1.66 3 2.32 3 3 C3.66 3.66 4.32 4.32 5 5 C4.01 5.99 3.02 6.98 2 8 C-0.875 3.25 -0.875 3.25 -2 1 C-1.34 0.67 -0.68 0.34 0 0 Z " fill="#9F753A" transform="translate(10,28)"/>
<path d="M0 0 C0.66 0 1.32 0 2 0 C2 0.66 2 1.32 2 2 C3.98 1.34 5.96 0.68 8 0 C8.33 1.32 8.66 2.64 9 4 C3.375 4.25 3.375 4.25 0 2 C0 1.34 0 0.68 0 0 Z " fill="#A8894D" transform="translate(15,43)"/>
<path d="M0 0 C0.33 0.66 0.66 1.32 1 2 C3.02463255 2.65213292 3.02463255 2.65213292 5 3 C4.34 4.32 3.68 5.64 3 7 C-0.0109362 4.9927092 -0.63016497 4.16115776 -2 1 C-1.34 0.67 -0.68 0.34 0 0 Z " fill="#A77D41" transform="translate(96,24)"/>
<path d="M0 0 C-0.33 0.99 -0.66 1.98 -1 3 C-3.66666667 3 -6.33333333 3 -9 3 C-6.38220849 -0.01046024 -3.86655673 -1.93327837 0 0 Z " fill="#D3C583" transform="translate(46,65)"/>
<path d="M0 0 C1.66015625 1.546875 1.66015625 1.546875 3 3 C1.5199159 2.88637738 0.04089926 2.75877092 -1.4375 2.625 C-2.26121094 2.55539062 -3.08492187 2.48578125 -3.93359375 2.4140625 C-4.61550781 2.27742187 -5.29742187 2.14078125 -6 2 C-6.33 1.34 -6.66 0.68 -7 0 C-4.26634878 -1.36682561 -2.89333621 -0.84683011 0 0 Z " fill="#E7E2A8" transform="translate(60,2)"/>
<path d="M0 0 C0.33 0.99 0.66 1.98 1 3 C-1.3125 3.6875 -1.3125 3.6875 -4 4 C-5.8125 2.5625 -5.8125 2.5625 -7 1 C-4 0 -4 0 0 0 Z " fill="#D7C585" transform="translate(44,111)"/>
<path d="M0 0 C0.99 0.33 1.98 0.66 3 1 C-0.32307692 5.8 -0.32307692 5.8 -3.75 6.8125 C-4.4925 6.874375 -5.235 6.93625 -6 7 C-5.67 6.34 -5.34 5.68 -5 5 C-4.34 5 -3.68 5 -3 5 C-3 4.34 -3 3.68 -3 3 C-1.5 1.375 -1.5 1.375 0 0 Z " fill="#CEB77A" transform="translate(75,74)"/>
<path d="M0 0 C0.66 0 1.32 0 2 0 C2.1875 2.875 2.1875 2.875 2 6 C1.01 6.66 0.02 7.32 -1 8 C-1.125 2.25 -1.125 2.25 0 0 Z " fill="#F1E793" transform="translate(54,98)"/>
<path d="M0 0 C5.53846154 -0.36923077 5.53846154 -0.36923077 7.875 1.5 C8.24625 1.995 8.6175 2.49 9 3 C7.3125 3.75 7.3125 3.75 5 4 C2.25 2.0625 2.25 2.0625 0 0 Z " fill="#CBB983" transform="translate(70,44)"/>
<path d="M0 0 C4.12751449 0.60698743 7.3321148 2.03810791 11 4 C9.4375 4.75 9.4375 4.75 7 5 C4.49713591 3.86915563 2.32992278 2.47860484 0 1 C0 0.67 0 0.34 0 0 Z " fill="#DFD69A" transform="translate(42,115)"/>
<path d="M0 0 C1.65 1.65 3.3 3.3 5 5 C2.03 4.505 2.03 4.505 -1 4 C-1.33 3.01 -1.66 2.02 -2 1 C-1.34 0.67 -0.68 0.34 0 0 Z " fill="#B49D65" transform="translate(26,79)"/>
<path d="M0 0 C1.5 1.375 1.5 1.375 3 3 C3 3.66 3 4.32 3 5 C2.01 5.33 1.02 5.66 0 6 C-0.66 5.34 -1.32 4.68 -2 4 C-1.34 2.68 -0.68 1.36 0 0 Z " fill="#C8A962" transform="translate(31,17)"/>
<path d="M0 0 C0.66 0.33 1.32 0.66 2 1 C1.67 2.65 1.34 4.3 1 6 C-0.98 5.34 -2.96 4.68 -5 4 C-3.35 2.68 -1.7 1.36 0 0 Z " fill="#E3D996" transform="translate(51,3)"/>
<path d="M0 0 C2.475 0.99 2.475 0.99 5 2 C4.67 3.32 4.34 4.64 4 6 C3.01 5.67 2.02 5.34 1 5 C0.67 3.35 0.34 1.7 0 0 Z " fill="#D2BA72" transform="translate(35,101)"/>
<path d="M0 0 C3.41021743 0.78697325 6.68885166 1.87119943 10 3 C9.67 3.66 9.34 4.32 9 5 C5.22454612 3.90931332 2.52956528 3.0916909 0 0 Z " fill="#C4B280" transform="translate(29,84)"/>
<path d="M0 0 C0 0.99 0 1.98 0 3 C0.66 3 1.32 3 2 3 C2 3.66 2 4.32 2 5 C-0.02045442 4.39816251 -2.02111039 3.72693904 -4 3 C-4.33 2.34 -4.66 1.68 -5 1 C-2 0 -2 0 0 0 Z " fill="#E7DE9C" transform="translate(62,67)"/>
</svg>
