<?xml version="1.0" encoding="UTF-8"?>
<svg version="1.1" xmlns="http://www.w3.org/2000/svg" width="225" height="218">
<path d="M0 0 C0.7425 0.6290625 1.485 1.258125 2.25 1.90625 C3.075 2.5971875 3.9 3.288125 4.75 4 C14.99644794 12.87192444 21.96227898 23.02042898 28.25 34.90625 C28.73597656 35.82277344 29.22195312 36.73929688 29.72265625 37.68359375 C39.57710135 57.72397904 40.81866082 81.5197121 35.25 102.90625 C34.9715625 104.00324219 34.693125 105.10023438 34.40625 106.23046875 C27.40376757 131.2522702 10.12995443 151.75277876 -11.78515625 165.24609375 C-24.805346 172.53671383 -39.75895557 177.3615517 -54.75 177.90625 C-55.74128906 177.94621094 -56.73257813 177.98617187 -57.75390625 178.02734375 C-83.09047576 178.54566106 -110.06593877 169.58036197 -128.75 151.90625 C-128.75 151.24625 -128.75 150.58625 -128.75 149.90625 C-129.31074219 149.68839844 -129.87148437 149.47054687 -130.44921875 149.24609375 C-143.82390564 141.45743907 -153.12982782 120.75778653 -156.9765625 106.5859375 C-163.5412195 80.50419291 -161.69003005 52.07997465 -147.76171875 28.546875 C-145.82364444 25.61238961 -143.81591621 22.75167686 -141.75 19.90625 C-141.23824219 19.14828125 -140.72648437 18.3903125 -140.19921875 17.609375 C-139.10822115 16.000234 -137.93872857 14.44460462 -136.75 12.90625 C-136.09 12.90625 -135.43 12.90625 -134.75 12.90625 C-134.53988281 12.35453125 -134.32976562 11.8028125 -134.11328125 11.234375 C-132.26342938 8.07531565 -129.71756676 5.96797558 -126.9375 3.65625 C-126.3614502 3.17462402 -125.78540039 2.69299805 -125.19189453 2.19677734 C-89.54163636 -26.96457212 -36.37572029 -29.62022938 0 0 Z M-118.75 3.90625 C-118.75 4.56625 -118.75 5.22625 -118.75 5.90625 C-119.306875 6.133125 -119.86375 6.36 -120.4375 6.59375 C-123.40033162 8.27535714 -125.37166174 10.46836571 -127.75 12.90625 C-128.52859375 13.67582031 -129.3071875 14.44539063 -130.109375 15.23828125 C-137.28790141 22.68658888 -142.13532523 30.70210349 -146.75 39.90625 C-147.18183594 40.75703125 -147.61367187 41.6078125 -148.05859375 42.484375 C-154.16573943 56.0769327 -155.42694915 71.22021431 -154.75 85.90625 C-152.16744495 83.32369495 -151.68603817 81.00539874 -150.5625 77.53125 C-144.50435409 59.90610839 -133.61050062 46.80821357 -116.87890625 38.4765625 C-104.526381 32.93186989 -92.08912703 31.44239975 -78.6640625 31.47265625 C-77.26833853 31.46807768 -75.8726168 31.46276725 -74.47689819 31.45677185 C-71.58102124 31.4479306 -68.68542148 31.45016472 -65.78955078 31.46020508 C-62.09780098 31.47176545 -58.4069978 31.45133134 -54.71537209 31.42228794 C-51.84469659 31.40387452 -48.97424684 31.40422712 -46.10352707 31.40992546 C-44.08734797 31.41015085 -42.07118974 31.39334114 -40.05508423 31.37611389 C-31.22400045 31.44316491 -25.93299049 32.55985761 -18.9375 38.15625 C-15.24231005 42.80163165 -13.66152197 48.0725094 -12.75 53.90625 C-9.41210665 50.89418138 -7.52340817 47.93896603 -5.5625 43.90625 C-5.05332031 42.875 -4.54414063 41.84375 -4.01953125 40.78125 C-0.41924217 32.62797996 -0.23101726 21.90656206 -3.3125 13.53125 C-9.25465617 0.97974819 -18.63524518 -6.09754813 -31.484375 -10.76953125 C-60.90395938 -20.50942645 -94.1104739 -14.5319418 -118.75 3.90625 Z M1.25 9.90625 C1.4665625 10.76283203 1.4665625 10.76283203 1.6875 11.63671875 C5.24718668 27.18562793 3.28251123 40.23787425 -4.75 53.90625 C-9.99384052 61.9196256 -19.66600815 68.87825272 -28.75 71.90625 C-30.64212737 72.12804785 -32.53884472 72.31239015 -34.4375 72.46875 C-35.43136719 72.55253906 -36.42523438 72.63632813 -37.44921875 72.72265625 C-38.58810547 72.81353516 -38.58810547 72.81353516 -39.75 72.90625 C-39.76458252 73.88907959 -39.77916504 74.87190918 -39.79418945 75.88452148 C-39.8526459 79.56944163 -39.92987058 83.25378056 -40.01245117 86.93823242 C-40.04547979 88.52570078 -40.07357869 90.11328035 -40.09643555 91.70092773 C-40.22235347 100.21780142 -40.37757622 107.93900719 -43.75 115.90625 C-44.08 116.89625 -44.41 117.88625 -44.75 118.90625 C-46.5 119.90625 -46.5 119.90625 -48.75 120.90625 C-49.49894531 121.40640625 -50.24789062 121.9065625 -51.01953125 122.421875 C-57.00556837 125.67608688 -65.2347117 125.53507208 -71.75 123.90625 C-66.0534448 137.02475933 -57.84009614 145.39798646 -44.5 150.71875 C-30.38653516 155.18801387 -14.93814137 153.80045483 -1.5625 147.71875 C15.07895397 138.68026062 23.34400012 121.17574964 29 103.84375 C35.79806151 79.18569259 31.72476675 54.40320908 20.25 31.90625 C15.63110173 23.8631583 10.03496539 16.26891464 3.25 9.90625 C2.59 9.90625 1.93 9.90625 1.25 9.90625 Z M-101.75 44.90625 C-103.10698258 48.97719774 -103.27387231 52.64978744 -102.75 56.90625 C-100.49380368 61.41864264 -98.25406736 63.72245976 -93.75 65.90625 C-90.01226105 66.44468291 -90.01226105 66.44468291 -86.0625 66.53125 C-78.95820433 66.80214783 -78.95820433 66.80214783 -76.75 67.90625 C-76.73018066 69.0207251 -76.71036133 70.1352002 -76.68994141 71.28344727 C-76.61353052 75.44154408 -76.52486931 79.59930706 -76.43261719 83.75708008 C-76.39447345 85.55226014 -76.35959578 87.34751283 -76.328125 89.14282227 C-76.28215553 91.73219659 -76.22421581 94.32107719 -76.1640625 96.91015625 C-76.15251129 97.70523087 -76.14096008 98.50030548 -76.12905884 99.31947327 C-75.98512275 104.82679764 -75.59007713 110.23500166 -72.375 114.90234375 C-68.92014483 117.96686673 -66.36202067 119.32678379 -61.6875 119.53125 C-57.07624867 119.23691481 -54.27188578 117.99863752 -50.75 114.90625 C-47.71426149 111.45178894 -46.64546649 108.45808943 -46.54467773 103.89379883 C-46.52473251 103.09319534 -46.50478729 102.29259186 -46.48423767 101.46772766 C-46.46752518 100.60826035 -46.45081268 99.74879303 -46.43359375 98.86328125 C-46.41281265 97.9796843 -46.39203156 97.09608734 -46.37062073 96.18571472 C-46.30524246 93.36347215 -46.24629472 90.54113665 -46.1875 87.71875 C-46.14430363 85.80532894 -46.10068898 83.89191727 -46.05664062 81.97851562 C-45.94957305 77.28785563 -45.84827248 72.59710217 -45.75 67.90625 C-42.3510847 66.77327823 -39.51538295 66.72711092 -35.9375 66.59375 C-28.52616354 66.09674391 -28.52616354 66.09674391 -22.75 61.90625 C-20.14844522 58.09063633 -19.14389293 54.65866321 -19.33203125 50 C-20.10953433 46.10521819 -22.0245239 42.77304708 -24.75 39.90625 C-28.60257138 38.01352906 -31.79817974 37.63269474 -36.06567383 37.56811523 C-37.32080276 37.54567245 -38.5759317 37.52322968 -39.86909485 37.50010681 C-41.23172884 37.48708964 -42.59437572 37.47536746 -43.95703125 37.46484375 C-44.64854467 37.45794085 -45.3400581 37.45103794 -46.05252647 37.44392586 C-49.71218445 37.4081671 -53.37168987 37.3845881 -57.03149414 37.37084961 C-60.79460688 37.35430957 -64.55583771 37.29588045 -68.31831837 37.22770596 C-71.22759676 37.18274987 -74.13643037 37.16934291 -77.04602623 37.16423225 C-78.43228474 37.15637879 -79.81853189 37.13685593 -81.20444679 37.10500908 C-90.02656612 36.91565009 -96.22726622 37.46476779 -101.75 44.90625 Z M-131.83984375 55.89453125 C-143.5383339 68.17682322 -148.75 83.16663279 -148.75 99.90625 C-147.58566239 116.9346875 -140.46996637 131.49997929 -128.75 143.90625 C-128.09 143.90625 -127.43 143.90625 -126.75 143.90625 C-126.75 144.56625 -126.75 145.22625 -126.75 145.90625 C-108.14154864 162.93771395 -84.55684179 172.64146246 -59.15234375 172.1640625 C-42.48595569 170.90116742 -27.277462 167.29136367 -12.75 158.90625 C-12.42 158.24625 -12.09 157.58625 -11.75 156.90625 C-12.925625 157.07125 -14.10125 157.23625 -15.3125 157.40625 C-32.37563653 159.23348352 -46.04597462 156.8012777 -60.75 147.90625 C-62.4354442 146.25857485 -64.10672173 144.59598137 -65.75 142.90625 C-66.41 142.90625 -67.07 142.90625 -67.75 142.90625 C-68.00910156 142.35324219 -68.26820312 141.80023438 -68.53515625 141.23046875 C-69.91503184 138.59051385 -71.52787143 136.19213193 -73.1875 133.71875 C-81.83750864 120.15151653 -82.0588797 104.79103297 -82.375 89.15625 C-82.41328598 87.5728977 -82.45234338 85.98956386 -82.4921875 84.40625 C-82.58700021 80.57307089 -82.67143851 76.73979519 -82.75 72.90625 C-83.49403076 72.85218994 -84.23806152 72.79812988 -85.00463867 72.74243164 C-86.47767456 72.62436157 -86.47767456 72.62436157 -87.98046875 72.50390625 C-88.95137451 72.42922119 -89.92228027 72.35453613 -90.92260742 72.27758789 C-97.28714416 71.44169631 -101.2843335 68.87532009 -105.1875 63.84375 C-108.8595068 58.6309011 -109.19191187 54.12384723 -108.75 47.90625 C-108.24122987 45.47742564 -107.55196618 43.26202566 -106.75 40.90625 C-115.8389257 40.90625 -125.53640887 49.89743152 -131.83984375 55.89453125 Z " fill="#4F51AE" transform="translate(168.75,32.09375)"/>
<path d="M0 0 C1.40143971 -0.00644374 2.80287814 -0.01317321 4.20431519 -0.02017212 C7.12403483 -0.03206777 10.04363678 -0.0358605 12.96337891 -0.03466797 C16.68658733 -0.03446412 20.40903813 -0.06186722 24.13206673 -0.09621239 C27.01988131 -0.11853879 29.90751432 -0.12250393 32.79540634 -0.12144852 C34.16761788 -0.12379195 35.53983539 -0.13254384 36.9119606 -0.14811325 C46.46523286 -0.24646092 52.70991285 0.35379947 60.1171875 6.7734375 C64.36979111 11.75505887 65.91498002 16.02880353 67.3046875 22.3359375 C67.78679687 21.4696875 68.26890625 20.6034375 68.765625 19.7109375 C69.39726562 18.5971875 70.02890625 17.4834375 70.6796875 16.3359375 C71.30617187 15.2221875 71.93265625 14.1084375 72.578125 12.9609375 C73.43277344 11.6615625 73.43277344 11.6615625 74.3046875 10.3359375 C74.9646875 10.3359375 75.6246875 10.3359375 76.3046875 10.3359375 C76.9646875 9.3459375 77.6246875 8.3559375 78.3046875 7.3359375 C80.3046875 9.3359375 80.3046875 9.3359375 80.3671875 12.2734375 C78.62254773 21.89903625 70.85786956 29.72919944 63.3046875 35.3359375 C57.06109894 39.48624746 52.2519132 42.4882578 44.6171875 42.3984375 C43.62332031 42.38941406 42.62945312 42.38039062 41.60546875 42.37109375 C40.46658203 42.35369141 40.46658203 42.35369141 39.3046875 42.3359375 C39.32039795 43.31876709 39.3361084 44.30159668 39.35229492 45.31420898 C39.40704333 48.99869426 39.44119891 52.68314439 39.46948242 56.36791992 C39.48446763 57.95554676 39.50486296 59.54313293 39.53100586 61.13061523 C39.85014929 81.02388937 39.85014929 81.02388937 33.9921875 88.1484375 C32.661875 89.23125 32.661875 89.23125 31.3046875 90.3359375 C30.4590625 91.0784375 29.6134375 91.8209375 28.7421875 92.5859375 C22.41570711 95.80669115 15.15989659 95.98370336 8.3046875 94.3359375 C11.74949655 100.38012628 15.37634376 105.92355954 19.88671875 111.23046875 C21.48903059 113.60965905 21.92559468 115.51489614 22.3046875 118.3359375 C17.48525273 117.91069326 14.68136663 115.57908481 11.3046875 112.3359375 C-2.08344384 96.00155072 -4.04797335 78.98091288 -3.8203125 58.5859375 C-3.81025448 57.00260988 -3.80113366 55.41927602 -3.79296875 53.8359375 C-3.77119745 50.00244662 -3.73682636 46.16926332 -3.6953125 42.3359375 C-4.81135864 42.36312866 -4.81135864 42.36312866 -5.94995117 42.39086914 C-6.9319751 42.40496826 -7.91399902 42.41906738 -8.92578125 42.43359375 C-10.38213989 42.46078491 -10.38213989 42.46078491 -11.86791992 42.48852539 C-17.95009719 42.16028424 -22.06603951 39.31761106 -26.0703125 34.8984375 C-30.47032286 29.2429894 -31.34003302 24.40306628 -30.6953125 17.3359375 C-29.6953125 13.7734375 -29.6953125 13.7734375 -28.6953125 11.3359375 C-33.47062372 12.71692552 -37.48083259 14.77900131 -41.6328125 17.4609375 C-42.24817871 17.854021 -42.86354492 18.24710449 -43.49755859 18.65209961 C-47.85435902 21.53488579 -51.18899916 24.6366436 -54.265625 28.90234375 C-54.73742188 29.37542969 -55.20921875 29.84851563 -55.6953125 30.3359375 C-57.0153125 30.3359375 -58.3353125 30.3359375 -59.6953125 30.3359375 C-57.86078346 21.16329231 -53.92529317 16.99692397 -46.5078125 11.8046875 C-32.15317426 2.54972337 -16.73269655 0.01826868 0 0 Z M-22.6953125 14.3359375 C-24.05229508 18.40688524 -24.21918481 22.07947494 -23.6953125 26.3359375 C-21.43911618 30.84833014 -19.19937986 33.15214726 -14.6953125 35.3359375 C-10.95757355 35.87437041 -10.95757355 35.87437041 -7.0078125 35.9609375 C0.09648317 36.23183533 0.09648317 36.23183533 2.3046875 37.3359375 C2.32450684 38.4504126 2.34432617 39.5648877 2.36474609 40.71313477 C2.44115698 44.87123158 2.52981819 49.02899456 2.62207031 53.18676758 C2.66021405 54.98194764 2.69509172 56.77720033 2.7265625 58.57250977 C2.77253197 61.16188409 2.83047169 63.75076469 2.890625 66.33984375 C2.90217621 67.13491837 2.91372742 67.92999298 2.92562866 68.74916077 C3.06956475 74.25648514 3.46461037 79.66468916 6.6796875 84.33203125 C10.13454267 87.39655423 12.69266683 88.75647129 17.3671875 88.9609375 C21.97843883 88.66660231 24.78280172 87.42832502 28.3046875 84.3359375 C31.34042601 80.88147644 32.40922101 77.88777693 32.51000977 73.32348633 C32.52995499 72.52288284 32.54990021 71.72227936 32.57044983 70.89741516 C32.58716232 70.03794785 32.60387482 69.17848053 32.62109375 68.29296875 C32.64187485 67.4093718 32.66265594 66.52577484 32.68406677 65.61540222 C32.74944504 62.79315965 32.80839278 59.97082415 32.8671875 57.1484375 C32.91038387 55.23501644 32.95399852 53.32160477 32.99804688 51.40820312 C33.10511445 46.71754313 33.20641502 42.02678967 33.3046875 37.3359375 C36.7036028 36.20296573 39.53930455 36.15679842 43.1171875 36.0234375 C50.52852396 35.52643141 50.52852396 35.52643141 56.3046875 31.3359375 C58.90624228 27.52032383 59.91079457 24.08835071 59.72265625 19.4296875 C58.94515317 15.53490569 57.0301636 12.20273458 54.3046875 9.3359375 C50.45211612 7.44321656 47.25650776 7.06238224 42.98901367 6.99780273 C41.73388474 6.97535995 40.4787558 6.95291718 39.18559265 6.92979431 C37.82295866 6.91677714 36.46031178 6.90505496 35.09765625 6.89453125 C34.40614283 6.88762835 33.7146294 6.88072544 33.00216103 6.87361336 C29.34250305 6.8378546 25.68299763 6.8142756 22.02319336 6.80053711 C18.26008062 6.78399707 14.49884979 6.72556795 10.73636913 6.65739346 C7.82709074 6.61243737 4.91825713 6.59903041 2.00866127 6.59391975 C0.62240276 6.58606629 -0.76384439 6.56654343 -2.14975929 6.53469658 C-10.97187862 6.34533759 -17.17257872 6.89445529 -22.6953125 14.3359375 Z " fill="#0F82BE" transform="translate(89.6953125,62.6640625)"/>
<path d="M0 0 C23.60030903 -0.94037221 48.02710348 8.09967708 65.9140625 23.25390625 C66.7390625 23.94484375 67.5640625 24.63578125 68.4140625 25.34765625 C78.66051044 34.21958069 85.62634148 44.36808523 91.9140625 56.25390625 C92.40003906 57.17042969 92.88601562 58.08695313 93.38671875 59.03125 C103.24116385 79.07163529 104.48272332 102.86736835 98.9140625 124.25390625 C98.635625 125.35089844 98.3571875 126.44789063 98.0703125 127.578125 C94.66091569 139.76084032 88.02615724 157.34515265 76.76953125 164.64453125 C74.9140625 165.25390625 74.9140625 165.25390625 72.9140625 164.25390625 C73.46069209 160.30295063 74.53742607 158.06950149 76.9765625 154.94140625 C91.35067492 135.06609032 97.52807615 110.89753262 94.1015625 86.56640625 C90.48557705 66.00977661 81.9250788 47.08873692 66.9140625 32.25390625 C66.2540625 31.92390625 65.5940625 31.59390625 64.9140625 31.25390625 C65.130625 31.82496094 65.3471875 32.39601562 65.5703125 32.984375 C69.0670046 43.1668719 68.71007904 52.94359527 65.9140625 63.25390625 C64.9240625 62.26390625 63.9340625 61.27390625 62.9140625 60.25390625 C61.9240625 61.24390625 60.9340625 62.23390625 59.9140625 63.25390625 C59.5840625 62.59390625 59.2540625 61.93390625 58.9140625 61.25390625 C59.21570313 60.3721875 59.51734375 59.49046875 59.828125 58.58203125 C62.54209728 50.2643896 61.99087871 40.43439002 58.234375 32.52734375 C51.13447521 20.30207251 41.3769603 14.17190127 27.9140625 10.25390625 C8.44211182 5.81617273 -11.06457701 6.05936435 -30.0078125 12.703125 C-32.42910942 13.34485971 -34.59192542 13.34546963 -37.0859375 13.25390625 C-37.0859375 12.26390625 -37.0859375 11.27390625 -37.0859375 10.25390625 C-36.4259375 10.25390625 -35.7659375 10.25390625 -35.0859375 10.25390625 C-35.0859375 9.26390625 -35.0859375 8.27390625 -35.0859375 7.25390625 C-23.35669953 3.49251048 -12.31766901 1.0134791 0 0 Z " fill="#C38C17" transform="translate(105.0859375,10.74609375)"/>
<path d="M0 0 C0.495 1.485 0.495 1.485 1 3 C1.99 3.33 2.98 3.66 4 4 C-6.60414695 21.27247577 -28.22823657 31.19478512 -47.21362305 35.80444336 C-52.77751079 37.06389465 -58.30547496 37.75870657 -64 38 C-64.33 37.34 -64.66 36.68 -65 36 C-64.34 35.34 -63.68 34.68 -63 34 C-69.93 33.505 -69.93 33.505 -77 33 C-76.67 32.34 -76.34 31.68 -76 31 C-75.35417969 31.03480469 -74.70835938 31.06960937 -74.04296875 31.10546875 C-54.85360808 31.65673629 -37.79752349 26.83443238 -21 18 C-22.5159375 18.2475 -22.5159375 18.2475 -24.0625 18.5 C-39.97770328 20.4188543 -53.20177195 18.28355162 -67 10 C-67.33 9.34 -67.66 8.68 -68 8 C-67.34 8 -66.68 8 -66 8 C-66.33 6.35 -66.66 4.7 -67 3 C-63.89951456 4.16268204 -60.94930452 5.50300452 -58 7 C-45.49688676 13.29838476 -31.17848396 13.85649809 -17.75390625 9.984375 C-11.19133724 7.63860565 -5.21258061 4.69132255 0 0 Z " fill="#6F3263" transform="translate(177,172)"/>
<path d="M0 0 C0 0.66 0 1.32 0 2 C-0.66 2 -1.32 2 -2 2 C-2 2.99 -2 3.98 -2 5 C-0.35 4.67 1.3 4.34 3 4 C0.02617295 6.35253454 -3.02438054 8.16833539 -6.375 9.9375 C-9.53967381 11.63180467 -12.61266697 13.32832572 -15.5625 15.375 C-18 17 -18 17 -20 17 C-20 17.66 -20 18.32 -20 19 C-25.47619048 24 -25.47619048 24 -28 24 C-28.38478516 24.87398437 -28.38478516 24.87398437 -28.77734375 25.765625 C-30.11020268 28.20139275 -31.61182632 29.77962255 -33.5625 31.75 C-37.28011065 35.84682048 -40.05403459 40.13941401 -42.75 44.9375 C-43.11424072 45.58106445 -43.47848145 46.22462891 -43.85375977 46.88769531 C-48.80755174 55.94152859 -51.68216323 64.94568881 -53.625 75.0625 C-54.03337019 77.11598172 -54.442217 79.16936872 -54.8515625 81.22265625 C-55.04266602 82.19477051 -55.23376953 83.16688477 -55.43066406 84.16845703 C-56.22655816 88.12676741 -57.10681163 92.06259623 -58 96 C-58.33 95.01 -58.66 94.02 -59 93 C-59.99 92.67 -60.98 92.34 -62 92 C-61.42069313 70.21806158 -55.91505771 50.78816196 -43 33 C-42.48824219 32.24203125 -41.97648437 31.4840625 -41.44921875 30.703125 C-40.35822115 29.093984 -39.18872857 27.53835462 -38 26 C-37.34 26 -36.68 26 -36 26 C-35.78988281 25.44828125 -35.57976563 24.8965625 -35.36328125 24.328125 C-33.51332933 21.16889479 -30.96721571 19.06230836 -28.1875 16.75 C-27.61507568 16.26982422 -27.04265137 15.78964844 -26.45288086 15.29492188 C-7.80010247 0 -7.80010247 0 0 0 Z " fill="#311B70" transform="translate(70,19)"/>
<path d="M0 0 C15.5385519 -0.61914538 32.03515039 3.32434956 45.9140625 10.25390625 C46.9040625 11.24390625 46.9040625 11.24390625 47.9140625 12.25390625 C46.2640625 12.25390625 44.6140625 12.25390625 42.9140625 12.25390625 C42.9140625 12.91390625 42.9140625 13.57390625 42.9140625 14.25390625 C43.5740625 14.25390625 44.2340625 14.25390625 44.9140625 14.25390625 C44.9140625 14.91390625 44.9140625 15.57390625 44.9140625 16.25390625 C43.6971875 15.84140625 42.4803125 15.42890625 41.2265625 15.00390625 C39.45587431 14.42013249 37.68502478 13.836848 35.9140625 13.25390625 C34.9240625 12.91746094 33.9340625 12.58101562 32.9140625 12.234375 C12.17520341 5.44849831 -9.39902865 5.47522419 -30.0078125 12.703125 C-32.42910942 13.34485971 -34.59192542 13.34546963 -37.0859375 13.25390625 C-37.0859375 12.26390625 -37.0859375 11.27390625 -37.0859375 10.25390625 C-36.4259375 10.25390625 -35.7659375 10.25390625 -35.0859375 10.25390625 C-35.0859375 9.26390625 -35.0859375 8.27390625 -35.0859375 7.25390625 C-23.35669953 3.49251048 -12.31766901 1.0134791 0 0 Z " fill="#C38A30" transform="translate(105.0859375,10.74609375)"/>
<path d="M0 0 C0.66 0.33 1.32 0.66 2 1 C2 2.98 2 4.96 2 7 C2.66 7 3.32 7 4 7 C4 8.65 4 10.3 4 12 C4.66 12 5.32 12 6 12 C6.33 9.69 6.66 7.38 7 5 C7.33 5 7.66 5 8 5 C8.34314776 16.80682471 7.99382361 27.50216879 5 39 C4.7215625 40.09699219 4.443125 41.19398438 4.15625 42.32421875 C0.74685319 54.50693407 -5.88790526 72.0912464 -17.14453125 79.390625 C-19 80 -19 80 -21 79 C-20.45337041 75.04904438 -19.37663643 72.81559524 -16.9375 69.6875 C-2.35138531 49.51904511 3.94577669 24.66110429 0 0 Z " fill="#B56451" transform="translate(199,96)"/>
<path d="M0 0 C4.40741584 1.79561386 7.85299646 4.62574988 9.94921875 8.96484375 C11.20791158 12.26200497 12.17487024 15.56959942 13 19 C13.48210937 18.13375 13.96421875 17.2675 14.4609375 16.375 C15.09257812 15.26125 15.72421875 14.1475 16.375 13 C17.00148437 11.88625 17.62796875 10.7725 18.2734375 9.625 C18.84320313 8.75875 19.41296875 7.8925 20 7 C20.66 7 21.32 7 22 7 C22.66 6.01 23.32 5.02 24 4 C26 6 26 6 26.0625 8.9375 C24.31754288 18.56484964 16.55252548 26.39060001 9 32 C0.03211991 38 0.03211991 38 -3 38 C-2.814375 37.360625 -2.62875 36.72125 -2.4375 36.0625 C-2.2209375 35.0415625 -2.2209375 35.0415625 -2 34 C-3.16277032 32.60843516 -3.16277032 32.60843516 -6.37890625 32.90234375 C-7.77347077 32.90901631 -9.16801743 32.92097468 -10.5625 32.9375 C-11.27341797 32.94201172 -11.98433594 32.94652344 -12.71679688 32.95117188 C-14.47790013 32.96299136 -16.23896036 32.98092737 -18 33 C-18 32.67 -18 32.34 -18 32 C-16.57107422 31.94392578 -16.57107422 31.94392578 -15.11328125 31.88671875 C-13.23189453 31.78810547 -13.23189453 31.78810547 -11.3125 31.6875 C-9.45044922 31.60048828 -9.45044922 31.60048828 -7.55078125 31.51171875 C-3.88607405 30.98358163 -1.93234093 30.20988012 1 28 C4.01054659 23.5360861 4.99697194 19.26820961 4 14 C2.11586085 10.67191761 2.11586085 10.67191761 0 8 C0 7.34 0 6.68 0 6 C0.66 6 1.32 6 2 6 C2.66 6.66 3.32 7.32 4 8 C4.66 7.67 5.32 7.34 6 7 C6 6.34 6 5.68 6 5 C5.38125 4.9175 4.7625 4.835 4.125 4.75 C2 4 2 4 0.75 1.9375 C0.5025 1.298125 0.255 0.65875 0 0 Z " fill="#197FB5" transform="translate(144,66)"/>
<path d="M0 0 C8.53623448 -0.04634803 17.07241635 -0.08188171 25.60874557 -0.10362434 C29.57254227 -0.1140599 33.53625286 -0.12821492 37.5 -0.15087891 C41.32550147 -0.17261545 45.15092012 -0.18457034 48.97647858 -0.18975449 C50.43571527 -0.19344879 51.89494744 -0.20066283 53.35414886 -0.21146011 C55.39863365 -0.225986 57.44277657 -0.22797751 59.48730469 -0.22705078 C60.65090515 -0.231492 61.81450562 -0.23593323 63.0133667 -0.24050903 C65.96348034 -0.00294087 67.57591117 0.34442492 70 2 C70.99 3.485 70.99 3.485 72 5 C72.99 5.33 73.98 5.66 75 6 C75.495 7.485 75.495 7.485 76 9 C74.68 9.33 73.36 9.66 72 10 C71.505 8.515 71.505 8.515 71 7 C64.45940763 5.83534194 57.97894838 5.79610862 51.34765625 5.71875 C50.13355576 5.70034058 48.91945526 5.68193115 47.66856384 5.66296387 C43.7999234 5.60442131 39.93123991 5.55152221 36.0625 5.5 C30.96996429 5.43208683 25.87755939 5.35840539 20.78515625 5.28125 C19.04263329 5.26088684 19.04263329 5.26088684 17.26490784 5.2401123 C11.4276339 5.15123435 5.77454374 4.87029963 0 4 C0 2.68 0 1.36 0 0 Z " fill="#0A87C4" transform="translate(75,65)"/>
<path d="M0 0 C13.34593874 11.7282492 21.83908955 32.78713917 23.2734375 50.34765625 C23.32449928 54.22324559 23.23016128 57.30951615 22 61 C21.34 61 20.68 61 20 61 C20 59.35 20 57.7 20 56 C19.34 56 18.68 56 18 56 C17.89042969 55.45811035 17.78085938 54.9162207 17.66796875 54.35791016 C13.84912757 35.92734432 7.98922611 20.34655018 -3 5 C-3.33 4.34 -3.66 3.68 -4 3 C-2.68 3.33 -1.36 3.66 0 4 C0 2.68 0 1.36 0 0 Z " fill="#C3862B" transform="translate(183,47)"/>
<path d="M0 0 C1.40862596 -0.00135046 2.81725147 -0.00329416 4.22587585 -0.00579834 C7.15819802 -0.00872685 10.09039732 -0.00452268 13.02270508 0.00488281 C16.77289907 0.01632911 20.52280833 0.00967106 24.27299213 -0.00226212 C27.17353961 -0.00949751 30.07401979 -0.007186 32.97456932 -0.00200653 C34.35760724 -0.00067741 35.74065136 -0.00229177 37.12368202 -0.00696564 C39.0542145 -0.01206416 40.9847686 -0.00291087 42.9152832 0.00683594 C44.55881523 0.00922272 44.55881523 0.00922272 46.23554993 0.01165771 C49.26140794 0.27095421 51.46104177 0.98723673 54.19921875 2.265625 C50.82007287 3.39200696 48.36007002 3.34838245 44.80004883 3.28735352 C43.83378822 3.2729422 43.83378822 3.2729422 42.8480072 3.25823975 C40.72147547 3.22529196 38.59515189 3.18494383 36.46875 3.14453125 C34.99330883 3.12022599 33.51785998 3.09638263 32.04240417 3.07298279 C28.16089122 3.01018217 24.27951432 2.94110419 20.39813232 2.87072754 C16.43670848 2.80000773 12.47518826 2.7352126 8.51367188 2.66992188 C0.74208088 2.5409614 -7.02937592 2.4053705 -14.80078125 2.265625 C-14.47078125 3.255625 -14.14078125 4.245625 -13.80078125 5.265625 C-11.49078125 5.595625 -9.18078125 5.925625 -6.80078125 6.265625 C-6.80078125 6.595625 -6.80078125 6.925625 -6.80078125 7.265625 C-7.46464844 7.36359375 -8.12851563 7.4615625 -8.8125 7.5625 C-14.17363851 8.47037163 -17.82114538 9.28598913 -21.80078125 13.265625 C-22.46078125 11.615625 -23.12078125 9.965625 -23.80078125 8.265625 C-25.03828125 8.595625 -26.27578125 8.925625 -27.55078125 9.265625 C-30.5466997 10.06453659 -32.60185844 10.265625 -35.80078125 10.265625 C-35.80078125 10.925625 -35.80078125 11.585625 -35.80078125 12.265625 C-37.12078125 12.265625 -38.44078125 12.265625 -39.80078125 12.265625 C-39.703125 9.93359375 -39.703125 9.93359375 -38.80078125 7.265625 C-35.9921875 5.75390625 -35.9921875 5.75390625 -32.36328125 4.578125 C-31.18894531 4.18238281 -30.01460937 3.78664063 -28.8046875 3.37890625 C-19.15901674 0.5860605 -10.02637756 -0.03417223 0 0 Z " fill="#1D84B9" transform="translate(89.80078125,62.734375)"/>
<path d="M0 0 C2.33524782 2.25740623 4.18705073 4.2805761 6 7 C10.86571613 9.3048129 15.90271857 9.3869068 21.1953125 9.65625 C24 10 24 10 28 12 C28 24.21 28 36.42 28 49 C27.34 49 26.68 49 26 49 C24.8992924 45.6978772 24.79372928 43.05916721 24.68359375 39.58203125 C24.64169922 38.32841797 24.59980469 37.07480469 24.55664062 35.78320312 C24.51732422 34.47287109 24.47800781 33.16253906 24.4375 31.8125 C24.39429008 30.47720022 24.350675 29.14191348 24.30664062 27.80664062 C24.20043498 24.53786703 24.09839003 21.26901667 24 18 C23.18088135 17.94231445 22.3617627 17.88462891 21.51782227 17.82519531 C20.44072998 17.74366211 19.3636377 17.66212891 18.25390625 17.578125 C17.1872876 17.49981445 16.12066895 17.42150391 15.02172852 17.34082031 C10.99865748 16.88705872 8.4809413 16.07375226 5 14 C3.25 11.75 3.25 11.75 2 9 C1.566875 8.10474609 1.566875 8.10474609 1.125 7.19140625 C0.33562743 5.49636963 -0.33984353 3.74941466 -1 2 C-0.67 1.34 -0.34 0.68 0 0 Z " fill="#038AC7" transform="translate(63,88)"/>
<path d="M0 0 C0.6875 1.6875 0.6875 1.6875 1 4 C-0.4375 6.75 -0.4375 6.75 -2 9 C-1.01 9.33 -0.02 9.66 1 10 C0.61328125 10.59425781 0.2265625 11.18851563 -0.171875 11.80078125 C-4.05161789 17.97571858 -6.75264426 24.07353437 -9 31 C-9.495 32.485 -9.495 32.485 -10 34 C-10.22179785 35.89212737 -10.40614015 37.78884472 -10.5625 39.6875 C-10.64628906 40.68136719 -10.73007812 41.67523438 -10.81640625 42.69921875 C-10.87699219 43.45847656 -10.93757813 44.21773437 -11 45 C-11.66 45 -12.32 45 -13 45 C-13 45.66 -13 46.32 -13 47 C-13.66 47 -14.32 47 -15 47 C-15.93423645 43.98968256 -16.04449911 43.13349732 -15 40 C-15.66 40 -16.32 40 -17 40 C-18.29258942 27.07410578 -10.99052858 13.98737144 -3.44140625 3.921875 C-2.33477461 2.58012332 -1.17524252 1.28208275 0 0 Z " fill="#3650AF" transform="translate(32,84)"/>
<path d="M0 0 C0.33 0 0.66 0 1 0 C1.33 5.94 1.66 11.88 2 18 C2.66 18 3.32 18 4 18 C4 20.31 4 22.62 4 25 C4.66 25 5.32 25 6 25 C6.33 24.34 6.66 23.68 7 23 C7.50423557 25.74928442 8.00353426 28.49931143 8.5 31.25 C8.64308594 32.02730469 8.78617188 32.80460937 8.93359375 33.60546875 C9.06894531 34.35957031 9.20429688 35.11367187 9.34375 35.890625 C9.46943359 36.58188477 9.59511719 37.27314453 9.72460938 37.98535156 C10 40 10 40 10 44 C9.34 44 8.68 44 8 44 C8 42.35 8 40.7 8 39 C7.34 39 6.68 39 6 39 C5.505 37.515 5.505 37.515 5 36 C4.34 36 3.68 36 3 36 C2.34 36.99 1.68 37.98 1 39 C-3.08143752 27.73523245 -4.39609747 16.91912882 -5 5 C-3.02 5.99 -3.02 5.99 -1 7 C-0.67 4.69 -0.34 2.38 0 0 Z " fill="#4240A4" transform="translate(13,106)"/>
<path d="M0 0 C0.589021 0.176521 1.17804199 0.35304199 1.78491211 0.53491211 C4.50014826 1.34371152 7.21873364 2.14065164 9.9375 2.9375 C11.32678711 3.35418945 11.32678711 3.35418945 12.74414062 3.77929688 C18.52689398 5.46339698 23.9945943 6.51340815 30 7 C30 7.66 30 8.32 30 9 C34.95 9 39.9 9 45 9 C45.495 10.485 45.495 10.485 46 12 C38.38845863 17.07436092 25.49892976 13.63060862 17 12 C13.61718446 11.12879751 10.30121657 10.14097347 7 9 C7 8.34 7 7.68 7 7 C6.01 6.67 5.02 6.34 4 6 C4 5.01 4 4.02 4 3 C2.68 2.67 1.36 2.34 0 2 C0 1.34 0 0.68 0 0 Z " fill="#4947A1" transform="translate(70,196)"/>
<path d="M0 0 C0 0.66 0 1.32 0 2 C-0.66 2 -1.32 2 -2 2 C-2 2.99 -2 3.98 -2 5 C-0.35 4.67 1.3 4.34 3 4 C0.02617295 6.35253454 -3.02438054 8.16833539 -6.375 9.9375 C-9.53967381 11.63180467 -12.61266697 13.32832572 -15.5625 15.375 C-18 17 -18 17 -20 17 C-20 17.66 -20 18.32 -20 19 C-25.47619048 24 -25.47619048 24 -28 24 C-28.33 24.99 -28.66 25.98 -29 27 C-31.475 26.01 -31.475 26.01 -34 25 C-34 22 -34 22 -31.61328125 19.58203125 C-30.52305736 18.64702281 -29.42197713 17.72457971 -28.3125 16.8125 C-27.44032837 16.08546875 -27.44032837 16.08546875 -26.55053711 15.34375 C-7.72762216 -0 -7.72762216 -0 0 0 Z " fill="#953D63" transform="translate(70,19)"/>
<path d="M0 0 C0.5534764 2.07553648 1 3.84365964 1 6 C1.99 6 2.98 6 4 6 C4 4.68 4 3.36 4 2 C4.66 2 5.32 2 6 2 C3.45194492 14.44739552 -4.12284045 26.06575261 -13 35 C-14.32 34.67 -15.64 34.34 -17 34 C-16.45337041 30.04904438 -15.37663643 27.81559524 -12.9375 24.6875 C-9.65226993 20.18476231 -7.08768045 15.54335949 -4.625 10.5625 C-4.27945068 9.86406982 -3.93390137 9.16563965 -3.57788086 8.44604492 C-2.22069078 5.65937632 -0.98122001 2.94366004 0 0 Z " fill="#8E3B62" transform="translate(195,141)"/>
<path d="M0 0 C0.68707555 2.49064888 1 4.37886292 1 7 C-19.53191489 12.76595745 -19.53191489 12.76595745 -29 13 C-29.33 12.34 -29.66 11.68 -30 11 C-29.34 10.34 -28.68 9.68 -28 9 C-34.93 8.505 -34.93 8.505 -42 8 C-41.67 7.34 -41.34 6.68 -41 6 C-40.35417969 6.03480469 -39.70835938 6.06960937 -39.04296875 6.10546875 C-26.00440191 6.4800377 -12.28812765 4.45405141 0 0 Z " fill="#302279" transform="translate(142,197)"/>
<path d="M0 0 C1.65 0.66 3.3 1.32 5 2 C5 6.09931268 3.34442111 7.24877757 0.6875 10.3125 C-2.54179706 14.04101207 -4.94845564 17.50519245 -7 22 C-7.99 22 -8.98 22 -10 22 C-10.99 24.475 -10.99 24.475 -12 27 C-13.65 26.67 -15.3 26.34 -17 26 C-14.22896454 19.67037162 -10.79679435 13.99659704 -6.8125 8.375 C-6.37244629 7.74706543 -5.93239258 7.11913086 -5.47900391 6.47216797 C-4.37321949 4.94104921 -3.19241254 3.46466248 -2 2 C-1.34 2 -0.68 2 0 2 C0 1.34 0 0.68 0 0 Z " fill="#53246E" transform="translate(34,43)"/>
<path d="M0 0 C-0.99 0.495 -0.99 0.495 -2 1 C4.6 1 11.2 1 18 1 C18 1.33 18 1.66 18 2 C17.34628418 2.06993164 16.69256836 2.13986328 16.01904297 2.21191406 C-0.87911673 4.01598091 -0.87911673 4.01598091 -17.29296875 8.23046875 C-20.00401495 9.00114134 -22.19866225 9.14851699 -25 9 C-25 8.01 -25 7.02 -25 6 C-24.34 6 -23.68 6 -23 6 C-23 5.01 -23 4.02 -23 3 C-15.70334314 0.19766077 -7.738585 -2.33751309 0 0 Z " fill="#B76153" transform="translate(93,15)"/>
<path d="M0 0 C3.10048544 1.16268204 6.05069548 2.50300452 9 4 C13.99994858 6.51870069 18.41034969 8.22004879 24 9 C24.33 9.99 24.66 10.98 25 12 C21.31353966 14.35933462 18.30723085 14.30923709 14 14 C11.37997849 12.9685389 9.07984163 11.94401938 6.625 10.625 C5.99722656 10.30789062 5.36945313 9.99078125 4.72265625 9.6640625 C0.14580676 7.29161352 0.14580676 7.29161352 -1 5 C-0.34 5 0.32 5 1 5 C0.67 3.35 0.34 1.7 0 0 Z " fill="#4C5287" transform="translate(110,175)"/>
<path d="M0 0 C0.33 0 0.66 0 1 0 C1 2.64 1 5.28 1 8 C1.66 8 2.32 8 3 8 C3 9.65 3 11.3 3 13 C3.99 13 4.98 13 6 13 C6.39832031 13.80824219 6.79664063 14.61648437 7.20703125 15.44921875 C7.73683594 16.51785156 8.26664063 17.58648437 8.8125 18.6875 C9.33457031 19.74324219 9.85664063 20.79898438 10.39453125 21.88671875 C11.8286728 24.66776696 13.35603378 27.33904567 15 30 C14.01 30 13.02 30 12 30 C8 25.65714286 8 25.65714286 8 23 C7.34 23 6.68 23 6 23 C5.34 23.66 4.68 24.32 4 25 C2.81516981 22.82075876 1.65261867 20.63370585 0.5 18.4375 C-0.00080078 17.52387695 -0.00080078 17.52387695 -0.51171875 16.59179688 C-2.76828463 12.23984839 -3.36065905 9.00414429 -3 4 C-2.01 4.33 -1.02 4.66 0 5 C0 3.35 0 1.7 0 0 Z " fill="#4C49B1" transform="translate(18,137)"/>
<path d="M0 0 C2.31 0 4.62 0 7 0 C6.67 0.99 6.34 1.98 6 3 C5.34 3 4.68 3 4 3 C4 3.66 4 4.32 4 5 C3.34 5 2.68 5 2 5 C2 6.32 2 7.64 2 9 C-0.4140625 10.88671875 -0.4140625 10.88671875 -3.625 12.6875 C-5.19121094 13.59048828 -5.19121094 13.59048828 -6.7890625 14.51171875 C-9.93907036 15.97175889 -12.56689902 16.61338953 -16 17 C-16.33 15.68 -16.66 14.36 -17 13 C-16.34 13 -15.68 13 -15 13 C-15 12.01 -15 11.02 -15 10 C-14.41992188 9.74605469 -13.83984375 9.49210938 -13.2421875 9.23046875 C-8.76877302 7.2595089 -4.35155978 5.23156912 0 3 C0 2.01 0 1.02 0 0 Z " fill="#49246C" transform="translate(158,186)"/>
<path d="M0 0 C2.33524782 2.25740623 4.18705073 4.2805761 6 7 C8.17897492 8.00805555 8.17897492 8.00805555 10.625 8.6875 C11.44226563 8.93886719 12.25953125 9.19023438 13.1015625 9.44921875 C13.72804688 9.63097656 14.35453125 9.81273438 15 10 C15 10.66 15 11.32 15 12 C15.66 12 16.32 12 17 12 C17 12.99 17 13.98 17 15 C18.98 14.67 20.96 14.34 23 14 C23.33 14.99 23.66 15.98 24 17 C10.80982567 17.58478605 10.80982567 17.58478605 5 14 C3.25 11.75 3.25 11.75 2 9 C1.566875 8.10474609 1.566875 8.10474609 1.125 7.19140625 C0.33562743 5.49636963 -0.33984353 3.74941466 -1 2 C-0.67 1.34 -0.34 0.68 0 0 Z " fill="#1784C0" transform="translate(63,88)"/>
<path d="M0 0 C0.6875 1.6875 0.6875 1.6875 1 4 C-0.4375 6.75 -0.4375 6.75 -2 9 C-1.01 9.33 -0.02 9.66 1 10 C0.57847656 10.69867188 0.15695313 11.39734375 -0.27734375 12.1171875 C-0.82519531 13.02726562 -1.37304688 13.93734375 -1.9375 14.875 C-2.48277344 15.77992187 -3.02804688 16.68484375 -3.58984375 17.6171875 C-4.43898017 19.05201636 -5.25437724 20.50875448 -6 22 C-6.99 22 -7.98 22 -9 22 C-9 22.66 -9 23.32 -9 24 C-10.32 24 -11.64 24 -13 24 C-11.95569039 14.76610451 -6.17468042 6.736015 0 0 Z " fill="#2E5EAE" transform="translate(32,84)"/>
<path d="M0 0 C-1.9358351 0.36315666 -3.87375248 0.71522731 -5.8125 1.0625 C-6.89144531 1.25972656 -7.97039062 1.45695312 -9.08203125 1.66015625 C-12 2 -12 2 -15 1 C-16.77313851 0.91790208 -18.54920775 0.89253706 -20.32421875 0.90234375 C-21.35224609 0.90556641 -22.38027344 0.90878906 -23.43945312 0.91210938 C-25.04723633 0.92467773 -25.04723633 0.92467773 -26.6875 0.9375 C-28.31268555 0.94426758 -28.31268555 0.94426758 -29.97070312 0.95117188 C-32.64719085 0.96296257 -35.32356777 0.97941937 -38 1 C-27.89892873 -5.73404752 -10.57089247 -7.04726164 0 0 Z " fill="#C2712E" transform="translate(126,16)"/>
<path d="M0 0 C6.6599358 5.85267086 11.46656558 13.52609866 14 22 C12.62437146 20.71034824 11.29233607 19.37310707 10 18 C10 17.34 10 16.68 10 16 C9.34 16 8.68 16 8 16 C8.66 18.97 9.32 21.94 10 25 C7.82035262 22.18838386 5.9303332 19.31418716 4.125 16.25 C1.47911059 11.79167634 -1.23775623 7.38709305 -4 3 C-2.68 3.33 -1.36 3.66 0 4 C0 2.68 0 1.36 0 0 Z " fill="#C2901F" transform="translate(183,47)"/>
<path d="M0 0 C3.14958831 3.42346555 3.56179109 6.44262737 4 11 C5.32 11.33 6.64 11.66 8 12 C7.67 13.32 7.34 14.64 7 16 C5.68 16.33 4.36 16.66 3 17 C3 17.66 3 18.32 3 19 C2.360625 19.103125 1.72125 19.20625 1.0625 19.3125 C0.0415625 19.6528125 0.0415625 19.6528125 -1 20 C-1.33 20.99 -1.66 21.98 -2 23 C-3.32 23 -4.64 23 -6 23 C-4.97058944 19.75339747 -3.87798944 16.75128617 -2.375 13.6875 C-0.90253787 9.73862428 -0.78162426 6.96138963 -0.9921875 2.8203125 C-0.99476563 2.21960938 -0.99734375 1.61890625 -1 1 C-0.67 0.67 -0.34 0.34 0 0 Z " fill="#0587C8" transform="translate(151,76)"/>
<path d="M0 0 C3.73201867 4.95277244 7.37082006 9.97161815 11 15 C11.71542969 15.96292969 11.71542969 15.96292969 12.4453125 16.9453125 C13.5625 18.5 13.5625 18.5 15 21 C14.67 21.99 14.34 22.98 14 24 C8.61604641 23.37877459 5.02796071 19.1632187 1.625 15.3125 C0 13 0 13 0 11 C1.32 11 2.64 11 4 11 C4 10.01 4 9.02 4 8 C3.34 8 2.68 8 2 8 C0.74335022 5.09399739 0 3.20395416 0 0 Z " fill="#2972AA" transform="translate(97,157)"/>
<path d="M0 0 C0.66 1.32 1.32 2.64 2 4 C1.01 4.495 1.01 4.495 0 5 C0.99 5.33 1.98 5.66 3 6 C2.55149473 8.96013476 2.09170133 11.91772909 1.625 14.875 C1.49867187 15.71675781 1.37234375 16.55851562 1.2421875 17.42578125 C1.11328125 18.23144531 0.984375 19.03710938 0.8515625 19.8671875 C0.73635254 20.61081543 0.62114258 21.35444336 0.50244141 22.12060547 C0 24 0 24 -2 26 C-2 25.01 -2 24.02 -2 23 C-2.99 22.67 -3.98 22.34 -5 22 C-4.67 16.72 -4.34 11.44 -4 6 C-3.34 6 -2.68 6 -2 6 C-1.855625 5.195625 -1.71125 4.39125 -1.5625 3.5625 C-1 1 -1 1 0 0 Z " fill="#372A82" transform="translate(13,89)"/>
<path d="M0 0 C0.99 0.495 0.99 0.495 2 1 C2 2.98 2 4.96 2 7 C2.66 7 3.32 7 4 7 C4 8.65 4 10.3 4 12 C4.66 12 5.32 12 6 12 C6.33 11.01 6.66 10.02 7 9 C7.21451671 24.63588454 7.21451671 24.63588454 6 30 C3.953125 31.20703125 3.953125 31.20703125 2 32 C1.96241577 30.97229492 1.96241577 30.97229492 1.92407227 29.92382812 C1.80714393 26.7824065 1.68486126 23.64121452 1.5625 20.5 C1.52318359 19.42234375 1.48386719 18.3446875 1.44335938 17.234375 C1.21341951 11.43281536 0.83001269 5.74731473 0 0 Z " fill="#BB6D36" transform="translate(199,96)"/>
<path d="M0 0 C0.66 0.33 1.32 0.66 2 1 C1.67 1.66 1.34 2.32 1 3 C2.98 3 4.96 3 7 3 C3.79200533 6.34166111 0.33509585 9.32555088 -3.1953125 12.31640625 C-5.21123097 14.06766041 -5.21123097 14.06766041 -7 17 C-8.32 17 -9.64 17 -11 17 C-9.40693071 9.03465353 -6.39163804 4.78059503 0 0 Z " fill="#206FB4" transform="translate(41,76)"/>
<path d="M0 0 C4.29 0 8.58 0 13 0 C13 0.33 13 0.66 13 1 C9.37 1 5.74 1 2 1 C2.02356567 2.47424438 2.02356567 2.47424438 2.04760742 3.97827148 C2.10235583 7.66275676 2.13651141 11.34720689 2.16479492 15.03198242 C2.17978013 16.61960926 2.20017546 18.20719543 2.22631836 19.79467773 C2.54330645 39.55360195 2.54330645 39.55360195 -2.30273438 45.63476562 C-3.6875 47.0625 -3.6875 47.0625 -6 49 C-6 48.01 -6 47.02 -6 46 C-5.34 46 -4.68 46 -4 46 C-3.87625 45.4225 -3.7525 44.845 -3.625 44.25 C-3 42 -3 42 -1.98681641 40.40332031 C-0.50356506 36.79096845 -0.64079749 33.14644889 -0.5859375 29.296875 C-0.56657135 28.45908508 -0.5472052 27.62129517 -0.5272522 26.75811768 C-0.46759276 24.08884787 -0.42112587 21.41953461 -0.375 18.75 C-0.33680764 16.93748146 -0.29775518 15.12498082 -0.2578125 13.3125 C-0.16190248 8.87514585 -0.0778212 4.43770675 0 0 Z " fill="#1C76AA" transform="translate(127,104)"/>
<path d="M0 0 C2.64 0 5.28 0 8 0 C8 0.66 8 1.32 8 2 C12.95 2 17.9 2 23 2 C23.33 2.99 23.66 3.98 24 5 C19.31048461 8.12634359 14.49227242 7.45075468 9 7 C5.88272909 6.34094735 3.86511838 5.51364744 1 4 C0.29296875 1.890625 0.29296875 1.890625 0 0 Z " fill="#3C2F8E" transform="translate(92,203)"/>
<path d="M0 0 C0 0.66 0 1.32 0 2 C-0.66 2 -1.32 2 -2 2 C-2 2.99 -2 3.98 -2 5 C-0.35 4.67 1.3 4.34 3 4 C-0.03256093 6.39450437 -3.16653681 8.28609748 -6.5625 10.125 C-7.98755859 10.90230469 -7.98755859 10.90230469 -9.44140625 11.6953125 C-12 13 -12 13 -15 14 C-15.99 13.67 -16.98 13.34 -18 13 C-15.19589899 6.45709765 -7.43464611 0 0 0 Z " fill="#AB3D5B" transform="translate(70,19)"/>
<path d="M0 0 C0.33 0 0.66 0 1 0 C1 1.98 1 3.96 1 6 C1.99 6 2.98 6 4 6 C4.33 4.35 4.66 2.7 5 1 C5.33 1 5.66 1 6 1 C6.22424141 8.36259293 5.90120099 14.87049629 4 22 C3.01 21.01 2.02 20.02 1 19 C0.01 19.99 -0.98 20.98 -2 22 C-2.33 21.34 -2.66 20.68 -3 20 C-2.70351562 19.12085937 -2.40703125 18.24171875 -2.1015625 17.3359375 C-0.89292169 13.67572738 -0.59244175 10.466471 -0.375 6.625 C-0.30023438 5.37976562 -0.22546875 4.13453125 -0.1484375 2.8515625 C-0.09945312 1.91054688 -0.05046875 0.96953125 0 0 Z " fill="#5E8D81" transform="translate(167,52)"/>
<path d="M0 0 C1.1446875 1.175625 1.1446875 1.175625 2.3125 2.375 C5.85851599 5.8385505 7.9042658 7.2996047 12.8125 7.375 C17.83242726 7.29438803 20.17297718 6.15729383 24 3 C24.66 2.67 25.32 2.34 26 2 C25.814375 3.11375 25.62875 4.2275 25.4375 5.375 C24.68319343 8.82568861 24.68319343 8.82568861 26 11 C21.51925805 14.36055646 18.39449293 14.27429625 13 14 C13.33 13.34 13.66 12.68 14 12 C16.31 12 18.62 12 21 12 C21 11.34 21 10.68 21 10 C20.03900391 10.03480469 20.03900391 10.03480469 19.05859375 10.0703125 C12.62218667 10.20460415 6.88064606 10.21588158 1.5625 6.125 C0 4 0 4 0 0 Z " fill="#1481B5" transform="translate(94,143)"/>
<path d="M0 0 C-1.6254308 -0.14095064 -3.25034051 -0.28792087 -4.875 -0.4375 C-5.77992188 -0.51871094 -6.68484375 -0.59992187 -7.6171875 -0.68359375 C-10 -1 -10 -1 -12 -2 C-11.505 -0.02 -11.505 -0.02 -11 2 C-15.29 1.67 -19.58 1.34 -24 1 C-24 0.67 -24 0.34 -24 0 C-21.36 -0.33 -18.72 -0.66 -16 -1 C-19.61375385 -4.61375385 -25.1686547 -4.07922909 -30.0625 -4.1875 C-35.71311074 -4.14847645 -41.16959283 -3.35185705 -46.73828125 -2.4375 C-49.87184581 -2.01718954 -52.84318943 -1.92358704 -56 -2 C-42.84170043 -9.80966409 -12.68001171 -8.45334114 0 0 Z " fill="#C08149" transform="translate(139,17)"/>
<path d="M0 0 C4.96479384 7.44719076 5.78078775 17.24616807 5 26 C4.67 26.99 4.34 27.98 4 29 C3.34 29 2.68 29 2 29 C2 27.35 2 25.7 2 24 C1.34 24 0.68 24 0 24 C-0.33 20.37 -0.66 16.74 -1 13 C-0.34 12.67 0.32 12.34 1 12 C1.042721 10.33388095 1.04063832 8.66617115 1 7 C0.67 6.67 0.34 6.34 0 6 C-0.04080783 4.00041636 -0.04254356 1.99954746 0 0 Z " fill="#C27E2B" transform="translate(201,79)"/>
<path d="M0 0 C1 4 1 4 1 7 C-0.55966218 7.508783 -2.12289241 8.00663469 -3.6875 8.5 C-4.55761719 8.7784375 -5.42773438 9.056875 -6.32421875 9.34375 C-8.99391677 9.99850805 -11.26396684 10.11831495 -14 10 C-14.33 9.34 -14.66 8.68 -15 8 C-14.34 8 -13.68 8 -13 8 C-13.33 6.68 -13.66 5.36 -14 4 C-9.38 2.68 -4.76 1.36 0 0 Z " fill="#311B6B" transform="translate(142,197)"/>
<path d="M0 0 C4.62 0 9.24 0 14 0 C14 0.99 14 1.98 14 3 C13.34 3 12.68 3 12 3 C12 3.66 12 4.32 12 5 C12.66 5.33 13.32 5.66 14 6 C11.58303128 6.05411124 9.16728213 6.09372278 6.75 6.125 C6.06808594 6.14175781 5.38617188 6.15851563 4.68359375 6.17578125 C0.9391765 6.21213482 -1.82352727 6.07944349 -5 4 C-3.35 3.34 -1.7 2.68 0 2 C0 1.34 0 0.68 0 0 Z " fill="#5C4176" transform="translate(134,185)"/>
<path d="M0 0 C0.5534764 2.07553648 1 3.84365964 1 6 C1.99 6 2.98 6 4 6 C4 4.68 4 3.36 4 2 C4.66 2 5.32 2 6 2 C5.54803755 3.60597325 5.08817673 5.20972508 4.625 6.8125 C4.36976563 7.70582031 4.11453125 8.59914062 3.8515625 9.51953125 C3 12 3 12 1 15 C0.01 15 -0.98 15 -2 15 C-2.144375 15.61875 -2.28875 16.2375 -2.4375 16.875 C-3 19 -3 19 -4 21 C-4.99 20.67 -5.98 20.34 -7 20 C-7 19.34 -7 18.68 -7 18 C-6.34 18 -5.68 18 -5 18 C-4.89042969 17.3709375 -4.78085938 16.741875 -4.66796875 16.09375 C-3.61950734 10.43376318 -2.17168983 5.3305114 0 0 Z " fill="#AF4E5E" transform="translate(195,141)"/>
<path d="M0 0 C0.99 0.66 1.98 1.32 3 2 C2.53411505 7.70709064 1.06242216 11.15939723 -2 16 C-2.33 14.68 -2.66 13.36 -3 12 C-4.98 12.66 -6.96 13.32 -9 14 C-7.02 10.37 -5.04 6.74 -3 3 C-2.34 3 -1.68 3 -1 3 C-0.67 2.01 -0.34 1.02 0 0 Z " fill="#3B889C" transform="translate(167,70)"/>
<path d="M0 0 C0 1.32 0 2.64 0 4 C-3 7 -3 7 -5.8203125 7.1953125 C-6.91085938 7.17210937 -8.00140625 7.14890625 -9.125 7.125 C-10.22070312 7.10695312 -11.31640625 7.08890625 -12.4453125 7.0703125 C-13.28835937 7.04710937 -14.13140625 7.02390625 -15 7 C-15 6.34 -15 5.68 -15 5 C-14.34 5 -13.68 5 -13 5 C-13 4.01 -13 3.02 -13 2 C-4.57142857 -0.28571429 -4.57142857 -0.28571429 0 0 Z " fill="#6B386E" transform="translate(161,183)"/>
<path d="M0 0 C1.4540625 0.0309375 1.4540625 0.0309375 2.9375 0.0625 C2.9375 1.0525 2.9375 2.0425 2.9375 3.0625 C3.9275 3.3925 4.9175 3.7225 5.9375 4.0625 C4.6175 5.0525 3.2975 6.0425 1.9375 7.0625 C1.6075 6.0725 1.2775 5.0825 0.9375 4.0625 C-0.3 4.3925 -1.5375 4.7225 -2.8125 5.0625 C-5.80841845 5.86141159 -7.86357719 6.0625 -11.0625 6.0625 C-11.0625 6.7225 -11.0625 7.3825 -11.0625 8.0625 C-12.3825 8.0625 -13.7025 8.0625 -15.0625 8.0625 C-14.875 6.16796875 -14.875 6.16796875 -14.0625 4.0625 C-11.8125 3.05078125 -11.8125 3.05078125 -9.0625 2.375 C-5.73502048 1.52895052 -3.28715267 0.06708475 0 0 Z " fill="#0486CA" transform="translate(65.0625,66.9375)"/>
<path d="M0 0 C2.9719385 1.12451727 5.33440687 2.22293791 8 4 C8 4.99 8 5.98 8 7 C10.97 7.495 10.97 7.495 14 8 C13.67 8.99 13.34 9.98 13 11 C7.02102497 11.74737188 3.67620279 9.3231898 -1 6 C-0.34 5.67 0.32 5.34 1 5 C0.67 3.35 0.34 1.7 0 0 Z " fill="#3C5F99" transform="translate(110,175)"/>
<path d="M0 0 C2.475 0.99 2.475 0.99 5 2 C5 5.77910478 4.00296038 6.46106101 1.5 9.1875 C0.8503125 9.90292969 0.200625 10.61835937 -0.46875 11.35546875 C-0.9740625 11.89816406 -1.479375 12.44085938 -2 13 C-5.0234375 9.2578125 -5.0234375 9.2578125 -4.8125 6.9375 C-4 5 -4 5 -2 2 C-1.34 2 -0.68 2 0 2 C0 1.34 0 0.68 0 0 Z M-6 10 C-4 11 -4 11 -4 11 Z " fill="#6D2D63" transform="translate(34,43)"/>
<path d="M0 0 C-0.33 1.32 -0.66 2.64 -1 4 C0.32 4 1.64 4 3 4 C3 3.34 3 2.68 3 2 C5.64 1.67 8.28 1.34 11 1 C8.57270376 2.61819749 6.15496015 4.11619172 3.625 5.5625 C2.87476563 5.99691406 2.12453125 6.43132812 1.3515625 6.87890625 C-2.46279744 8.69738018 -4.95094825 9.34968392 -9 8 C-8.01437243 4.68470727 -7.34552581 3.25050621 -4.5 1.1875 C-2 0 -2 0 0 0 Z " fill="#1D7BBA" transform="translate(51,71)"/>
<path d="M0 0 C2.31 0 4.62 0 7 0 C6.67 0.99 6.34 1.98 6 3 C5.34 3 4.68 3 4 3 C4 3.66 4 4.32 4 5 C3.34 5 2.68 5 2 5 C2 6.32 2 7.64 2 9 C-4.28571429 11.42857143 -4.28571429 11.42857143 -8 10 C-6.86500606 6.70851757 -6.00716624 6.0040131 -2.875 4.25 C-1.92625 3.8375 -0.9775 3.425 0 3 C0 2.01 0 1.02 0 0 Z " fill="#66276F" transform="translate(158,186)"/>
<path d="M0 0 C2.28374911 2.28374911 3.47452482 4.52998879 5 7.375 C5.515625 8.33148438 6.03125 9.28796875 6.5625 10.2734375 C7.73781255 12.5026988 8.88592099 14.73970508 10 17 C9.01 17 8.02 17 7 17 C3 12.65714286 3 12.65714286 3 10 C2.34 10 1.68 10 1 10 C0.34 10.66 -0.32 11.32 -1 12 C-2.5625 9.6875 -2.5625 9.6875 -4 7 C-3.67 6.01 -3.34 5.02 -3 4 C-2.01 4.99 -1.02 5.98 0 7 C0 4.69 0 2.38 0 0 Z " fill="#4A4C9F" transform="translate(23,150)"/>
<path d="M0 0 C2.55328689 4.59591641 3.33981624 7.61808063 2.0625 12.8125 C1.711875 13.864375 1.36125 14.91625 1 16 C0.67 15.34 0.34 14.68 0 14 C-0.66 14 -1.32 14 -2 14 C-4.5234375 6.28125 -4.5234375 6.28125 -3 3 C-1.4375 1.25 -1.4375 1.25 0 0 Z " fill="#9B8F43" transform="translate(170,44)"/>
<path d="M0 0 C0.33 0 0.66 0 1 0 C1.33 4.62 1.66 9.24 2 14 C1.01 14 0.02 14 -1 14 C-1.66 15.98 -2.32 17.96 -3 20 C-3.33 20 -3.66 20 -4 20 C-4.33 15.05 -4.66 10.1 -5 5 C-3.02 5.99 -3.02 5.99 -1 7 C-0.67 4.69 -0.34 2.38 0 0 Z " fill="#43378B" transform="translate(13,106)"/>
<path d="M0 0 C1.2077558 3.62326739 0.54311128 4.64146369 -1 8 C-1.66 8 -2.32 8 -3 8 C-2.01 8.99 -1.02 9.98 0 11 C0.66 9.02 1.32 7.04 2 5 C2.66 5 3.32 5 4 5 C2.72936492 9.96702804 0.95657311 12.71893937 -3 16 C-3.99 16 -4.98 16 -6 16 C-4.94513949 9.87903309 -3.34782974 5.24493326 0 0 Z " fill="#9F4363" transform="translate(191,151)"/>
<path d="M0 0 C0.66 0.33 1.32 0.66 2 1 C0.02 5.29 -1.96 9.58 -4 14 C-4.66 13.01 -5.32 12.02 -6 11 C-6.99 11.495 -6.99 11.495 -8 12 C-8.93065133 9.39417629 -9.14917407 8.35801776 -8.0625 5.75 C-7.5365625 4.88375 -7.5365625 4.88375 -7 4 C-5.35 4 -3.7 4 -2 4 C-2 3.34 -2 2.68 -2 2 C-1.34 2 -0.68 2 0 2 C0 1.34 0 0.68 0 0 Z " fill="#43226D" transform="translate(24,65)"/>
<path d="M0 0 C2.475 0.495 2.475 0.495 5 1 C6.125 4.75 6.125 4.75 5 7 C8.60992379 6.34414811 8.60992379 6.34414811 12 5 C11.6875 6.875 11.6875 6.875 11 9 C10.01 9.66 9.02 10.32 8 11 C8 10.34 8 9.68 8 9 C7.05125 9.04125 6.1025 9.0825 5.125 9.125 C2 9 2 9 0 7 C0.35355436 4.73725212 0.97544426 3.04911148 2 1 C1.34 0.67 0.68 0.34 0 0 Z " fill="#CB8F05" transform="translate(162,31)"/>
<path d="M0 0 C1.32 0.66 2.64 1.32 4 2 C-0.19761499 8.89608177 -0.19761499 8.89608177 -4 10 C-4.99 9.67 -5.98 9.34 -7 9 C-7 6 -7 6 -5.46875 4.39453125 C-4.49421875 3.61142578 -4.49421875 3.61142578 -3.5 2.8125 C-2.8503125 2.28269531 -2.200625 1.75289062 -1.53125 1.20703125 C-1.0259375 0.80871094 -0.520625 0.41039062 0 0 Z " fill="#7F3165" transform="translate(177,174)"/>
<path d="M0 0 C1.33333333 1.33333333 2.66666667 2.66666667 4 4 C4.886875 4.845625 5.77375 5.69125 6.6875 6.5625 C9 9 9 9 10 12 C8.35 12.33 6.7 12.66 5 13 C1.91882048 9.50799655 0.11110462 6.545428 -1 2 C-0.67 1.34 -0.34 0.68 0 0 Z " fill="#0688C9" transform="translate(63,88)"/>
<path d="M0 0 C7.425 0.99 7.425 0.99 15 2 C15.33 3.32 15.66 4.64 16 6 C15.01 6.495 15.01 6.495 14 7 C12.29120025 6.24418472 10.58343956 5.48567967 8.88671875 4.703125 C6.2239659 3.71079474 3.80514151 3.79474574 1 4 C0.67 2.68 0.34 1.36 0 0 Z " fill="#C67D16" transform="translate(127,15)"/>
<path d="M0 0 C1.4606285 2.64738916 2 3.89448334 2 7 C2.66 7.33 3.32 7.66 4 8 C4.125 15.75 4.125 15.75 3 18 C2.34 18 1.68 18 1 18 C0.06576355 14.98968256 -0.04449911 14.13349732 1 11 C0.34 11 -0.32 11 -1 11 C-1.125 3.375 -1.125 3.375 0 0 Z " fill="#3E48A7" transform="translate(16,113)"/>
<path d="M0 0 C5.66710699 1.31793186 7.66437233 3.48709197 11 8 C9.3739713 7.93999894 7.74898451 7.8512115 6.125 7.75 C4.76761719 7.68039063 4.76761719 7.68039063 3.3828125 7.609375 C1 7 1 7 -0.3828125 5.140625 C-1 3 -1 3 0 0 Z " fill="#454097" transform="translate(86,201)"/>
<path d="M0 0 C0.59296875 0.31710938 1.1859375 0.63421875 1.796875 0.9609375 C4.49483195 2.23337819 7.05774741 2.59878374 10 3 C10.1875 5.875 10.1875 5.875 10 9 C9.01 9.66 8.02 10.32 7 11 C4.59424393 8.81482901 3.20464419 6.74080329 1.8125 3.8125 C1.46832031 3.09707031 1.12414062 2.38164063 0.76953125 1.64453125 C0.51558594 1.10183594 0.26164063 0.55914062 0 0 Z " fill="#B98B1A" transform="translate(160,37)"/>
<path d="M0 0 C2.97069541 2.54631035 4.4775751 5.42230149 6 9 C5.67 9.66 5.34 10.32 5 11 C2 7.25 2 7.25 2 5 C1.34 5 0.68 5 0 5 C0.66 7.97 1.32 10.94 2 14 C-0.77398263 10.53252172 -2.95912413 6.93597489 -5 3 C-4.67 2.34 -4.34 1.68 -4 1 C-3.34 1.33 -2.68 1.66 -2 2 C-2 2.66 -2 3.32 -2 4 C-1.34 4 -0.68 4 0 4 C0 2.68 0 1.36 0 0 Z " fill="#BF8C2F" transform="translate(191,58)"/>
<path d="M0 0 C0.33 0 0.66 0 1 0 C1 1.98 1 3.96 1 6 C1.99 6 2.98 6 4 6 C4.33 4.35 4.66 2.7 5 1 C5.33 1 5.66 1 6 1 C6.05389087 2.95803507 6.09274217 4.91648909 6.125 6.875 C6.14820313 7.96554688 6.17140625 9.05609375 6.1953125 10.1796875 C6 13 6 13 4 15 C1.7522025 12.94766315 0.9977758 11.99332739 0 9 C-0.06740865 7.43881572 -0.08514456 5.8749748 -0.0625 4.3125 C-0.05347656 3.50425781 -0.04445312 2.69601563 -0.03515625 1.86328125 C-0.02355469 1.24839844 -0.01195312 0.63351563 0 0 Z " fill="#879263" transform="translate(167,52)"/>
<path d="M0 0 C0 0.66 0 1.32 0 2 C-0.66 2 -1.32 2 -2 2 C-2 2.99 -2 3.98 -2 5 C-0.35 4.67 1.3 4.34 3 4 C-0.03256093 6.39450437 -3.16653681 8.28609748 -6.5625 10.125 C-7.98755859 10.90230469 -7.98755859 10.90230469 -9.44140625 11.6953125 C-12 13 -12 13 -15 14 C-15.33 13.34 -15.66 12.68 -16 12 C-15.030625 11.731875 -14.06125 11.46375 -13.0625 11.1875 C-12.051875 10.795625 -11.04125 10.40375 -10 10 C-9.67 9.01 -9.34 8.02 -9 7 C-7.02 6.67 -5.04 6.34 -3 6 C-3 5.01 -3 4.02 -3 3 C-3.99 2.67 -4.98 2.34 -6 2 C-2.25 0 -2.25 0 0 0 Z " fill="#AB4D63" transform="translate(70,19)"/>
<path d="M0 0 C0.66 0.33 1.32 0.66 2 1 C1.505 1.45375 1.01 1.9075 0.5 2.375 C-1.22609337 3.87635519 -1.22609337 3.87635519 -1 6 C-0.34 6 0.32 6 1 6 C1 6.66 1 7.32 1 8 C0.34 8 -0.32 8 -1 8 C-1.33 8.99 -1.66 9.98 -2 11 C-4.475 10.01 -4.475 10.01 -7 9 C-7 6 -7 6 -5.46875 4.39453125 C-4.49421875 3.61142578 -4.49421875 3.61142578 -3.5 2.8125 C-2.8503125 2.28269531 -2.200625 1.75289062 -1.53125 1.20703125 C-1.0259375 0.80871094 -0.520625 0.41039062 0 0 Z " fill="#803361" transform="translate(43,35)"/>
<path d="M0 0 C0.99 0.33 1.98 0.66 3 1 C2.979375 1.969375 2.95875 2.93875 2.9375 3.9375 C2.64381501 6.87465895 2.64381501 6.87465895 4 8 C3.71269945 10.33944736 3.38063221 12.6739143 3 15 C2.34 14.67 1.68 14.34 1 14 C0.37330801 11.83532539 -0.15427374 9.64135476 -0.625 7.4375 C-0.88539063 6.23996094 -1.14578125 5.04242188 -1.4140625 3.80859375 C-1.60742188 2.88175781 -1.80078125 1.95492187 -2 1 C-1.34 0.67 -0.68 0.34 0 0 Z " fill="#C97E11" transform="translate(199,78)"/>
<path d="M0 0 C1 4 1 4 0 6 C-5.44927536 7.27536232 -5.44927536 7.27536232 -8 6 C-8 5.34 -8 4.68 -8 4 C-8.66 3.67 -9.32 3.34 -10 3 C-5.05 1.515 -5.05 1.515 0 0 Z " fill="#3C1C74" transform="translate(142,197)"/>
<path d="M0 0 C1 4 1 4 0.0625 6.25 C-0.4634375 7.11625 -0.4634375 7.11625 -1 8 C-1.66 8 -2.32 8 -3 8 C-3 7.34 -3 6.68 -3 6 C-4.32 6.33 -5.64 6.66 -7 7 C-7.33 6.01 -7.66 5.02 -8 4 C-5.36 2.68 -2.72 1.36 0 0 Z " fill="#762C6B" transform="translate(168,180)"/>
<path d="M0 0 C0.66 0 1.32 0 2 0 C2.66 5.94 3.32 11.88 4 18 C3.34 18 2.68 18 2 18 C2 16.35 2 14.7 2 13 C1.34 13 0.68 13 0 13 C0 8.71 0 4.42 0 0 Z " fill="#434090" transform="translate(19,132)"/>
<path d="M0 0 C1.98 0 3.96 0 6 0 C5.67 1.32 5.34 2.64 5 4 C5.66 4.33 6.32 4.66 7 5 C-1.57142857 6.42857143 -1.57142857 6.42857143 -5 4 C-3.35 3.34 -1.7 2.68 0 2 C0 1.34 0 0.68 0 0 Z " fill="#584981" transform="translate(134,185)"/>
<path d="M0 0 C1.1446875 0.3403125 1.1446875 0.3403125 2.3125 0.6875 C2.3125 1.3475 2.3125 2.0075 2.3125 2.6875 C-2.98161765 6.6875 -2.98161765 6.6875 -6.6875 6.6875 C-6.28750283 4.36751641 -5.78182121 2.82426576 -4.4375 0.875 C-2.6875 -0.3125 -2.6875 -0.3125 0 0 Z " fill="#95325D" transform="translate(47.6875,35.3125)"/>
<path d="M0 0 C2.64 0 5.28 0 8 0 C8.33 1.98 8.66 3.96 9 6 C3.25 5.25 3.25 5.25 1 3 C0.67 2.01 0.34 1.02 0 0 Z " fill="#403991" transform="translate(92,203)"/>
<path d="M0 0 C2 3 2 3 2 5 C2.66 5 3.32 5 4 5 C4 5.99 4 6.98 4 8 C1.6875 8.25 1.6875 8.25 -1 8 C-2.875 6.1875 -2.875 6.1875 -4 4 C-3.67 3.01 -3.34 2.02 -3 1 C-2.34 1.33 -1.68 1.66 -1 2 C-0.67 1.34 -0.34 0.68 0 0 Z " fill="#127ABE" transform="translate(97,160)"/>
<path d="M0 0 C2.29633824 3.44450737 2.54016485 5.93812283 3 10 C1.02 10.99 1.02 10.99 -1 12 C-1.02687279 10.18757948 -1.04633715 8.37504767 -1.0625 6.5625 C-1.07410156 5.55316406 -1.08570313 4.54382813 -1.09765625 3.50390625 C-1 1 -1 1 0 0 Z " fill="#C05F37" transform="translate(202,116)"/>
<path d="M0 0 C0.99 0.66 1.98 1.32 3 2 C2.67 4.31 2.34 6.62 2 9 C0.35 8.01 -1.3 7.02 -3 6 C-3.33 6.99 -3.66 7.98 -4 9 C-4.33 8.34 -4.66 7.68 -5 7 C-4.54625 6.401875 -4.0925 5.80375 -3.625 5.1875 C-2.36704087 3.49409348 -1.17015276 1.75522914 0 0 Z " fill="#488589" transform="translate(167,70)"/>
<path d="M0 0 C0.66 0 1.32 0 2 0 C2.33 1.65 2.66 3.3 3 5 C2.34 5 1.68 5 1 5 C0.855625 5.61875 0.71125 6.2375 0.5625 6.875 C0 9 0 9 -1 11 C-1.99 10.67 -2.98 10.34 -4 10 C-4 9.34 -4 8.68 -4 8 C-3.34 8 -2.68 8 -2 8 C-1.855625 7.236875 -1.71125 6.47375 -1.5625 5.6875 C-1 3 -1 3 0 0 Z " fill="#AF3C57" transform="translate(192,151)"/>
<path d="M0 0 C-1.38596139 1.99231949 -2.54374514 2.89083473 -4.91015625 3.45703125 C-10.55046362 4.22476819 -10.55046362 4.22476819 -13 3 C-13 2.34 -13 1.68 -13 1 C-11.58622218 0.63447197 -10.16879424 0.28304505 -8.75 -0.0625 C-7.96109375 -0.25972656 -7.1721875 -0.45695313 -6.359375 -0.66015625 C-3.89605178 -1.01497267 -2.34395868 -0.76877544 0 0 Z " fill="#BE563E" transform="translate(93,15)"/>
<path d="M0 0 C0.99 0.66 1.98 1.32 3 2 C3.1875 4.625 3.1875 4.625 3 7 C1.125 7.625 1.125 7.625 -1 8 C-1.66 7.34 -2.32 6.68 -3 6 C-1.125 1.125 -1.125 1.125 0 0 Z " fill="#63296A" transform="translate(28,51)"/>
<path d="M0 0 C4.21878192 -0.19622241 7.17010894 0.19769832 11 2 C7.3558226 4.4294516 5.28758728 4.16179575 1 4 C0.67 2.68 0.34 1.36 0 0 Z " fill="#C4741A" transform="translate(115,13)"/>
<path d="M0 0 C1.1446875 1.175625 1.1446875 1.175625 2.3125 2.375 C5.97869679 5.9559364 8.16200914 7.23340331 13.1875 7.625 C14.08855469 7.69976562 14.98960938 7.77453125 15.91796875 7.8515625 C16.60503906 7.90054688 17.29210937 7.94953125 18 8 C18 8.33 18 8.66 18 9 C16.22925083 9.02705729 14.45838289 9.04642195 12.6875 9.0625 C11.70136719 9.07410156 10.71523437 9.08570313 9.69921875 9.09765625 C6.26295352 8.97333406 4.46857688 8.38824941 1.8125 6.1875 C0 4 0 4 0 0 Z " fill="#217FB1" transform="translate(94,143)"/>
<path d="M0 0 C1.33333333 0 2.66666667 0 4 0 C4.125 3.375 4.125 3.375 4 7 C3.34 7.66 2.68 8.32 2 9 C2 8.01 2 7.02 2 6 C1.01 5.67 0.02 5.34 -1 5 C-0.67 3.35 -0.34 1.7 0 0 Z " fill="#352A9E" transform="translate(9,106)"/>
<path d="M0 0 C1.0625 1.875 1.0625 1.875 2 4 C1.67 4.66 1.34 5.32 1 6 C0.82596643 7.35083198 0.68314518 8.70585728 0.5625 10.0625 C0.376875 11.361875 0.19125 12.66125 0 14 C-0.99 14.495 -0.99 14.495 -2 15 C-2.05386629 12.87527424 -2.09273071 10.75016348 -2.125 8.625 C-2.14820313 7.44164063 -2.17140625 6.25828125 -2.1953125 5.0390625 C-2 2 -2 2 0 0 Z " fill="#311F86" transform="translate(13,89)"/>
<path d="M0 0 C0.928125 0.2784375 0.928125 0.2784375 1.875 0.5625 C4.04160178 1.23686176 4.04160178 1.23686176 6 0 C6.99 0.66 7.98 1.32 9 2 C8.67 3.32 8.34 4.64 8 6 C6.68 5.67 5.36 5.34 4 5 C4 4.34 4 3.68 4 3 C2.68 2.34 1.36 1.68 0 1 C0 0.67 0 0.34 0 0 Z " fill="#C88507" transform="translate(151,26)"/>
<path d="M0 0 C2.97 0.495 2.97 0.495 6 1 C5.34 2.65 4.68 4.3 4 6 C2.02 6 0.04 6 -2 6 C-2 5.01 -2 4.02 -2 3 C-1.34 3 -0.68 3 0 3 C0 2.01 0 1.02 0 0 Z " fill="#C1434C" transform="translate(70,18)"/>
<path d="M0 0 C0.93423645 3.01031744 1.04449911 3.86650268 0 7 C-0.22179785 8.89212737 -0.40614015 10.78884472 -0.5625 12.6875 C-0.68818359 14.17830078 -0.68818359 14.17830078 -0.81640625 15.69921875 C-0.87699219 16.45847656 -0.93757813 17.21773437 -1 18 C-1.33 18 -1.66 18 -2 18 C-3.70159453 5.33029613 -3.70159453 5.33029613 0 0 Z " fill="#345091" transform="translate(22,111)"/>
<path d="M0 0 C1.65 0 3.3 0 5 0 C5 0.66 5 1.32 5 2 C5.99 2 6.98 2 8 2 C7.67 2.99 7.34 3.98 7 5 C6.67 4.34 6.34 3.68 6 3 C5.01 3.495 5.01 3.495 4 4 C4.99 4.66 5.98 5.32 7 6 C6.67 6.66 6.34 7.32 6 8 C4 6.6875 4 6.6875 2 5 C2 4.01 2 3.02 2 2 C1.34 2 0.68 2 0 2 C0 1.34 0 0.68 0 0 Z " fill="#C78A17" transform="translate(148,23)"/>
<path d="M0 0 C1.32 1.32 2.64 2.64 4 4 C3.34 5.98 2.68 7.96 2 10 C0.35 8.35 -1.3 6.7 -3 5 C-2.01 3.35 -1.02 1.7 0 0 Z " fill="#522963" transform="translate(25,55)"/>
<path d="M0 0 C0.928125 0.20625 1.85625 0.4125 2.8125 0.625 C2.4825 1.285 2.1525 1.945 1.8125 2.625 C-0.93828884 3.54192961 -2.54698913 3.73386083 -5.375 3.6875 C-7.2621875 3.6565625 -7.2621875 3.6565625 -9.1875 3.625 C-3.1875 -0.375 -3.1875 -0.375 0 0 Z " fill="#C46132" transform="translate(97.1875,13.375)"/>
<path d="M0 0 C1.32 0 2.64 0 4 0 C4.33 0.66 4.66 1.32 5 2 C5.99 1.67 6.98 1.34 8 1 C8 1.66 8 2.32 8 3 C1.71428571 5.42857143 1.71428571 5.42857143 -2 4 C-1.34 2.68 -0.68 1.36 0 0 Z " fill="#562770" transform="translate(152,192)"/>
<path d="M0 0 C0.66 0.66 1.32 1.32 2 2 C0.87926138 2.83905565 -0.24674547 3.67107831 -1.375 4.5 C-2.00148437 4.9640625 -2.62796875 5.428125 -3.2734375 5.90625 C-5 7 -5 7 -7 7 C-7 6.01 -7 5.02 -7 4 C-6.34 4 -5.68 4 -5 4 C-5 3.34 -5 2.68 -5 2 C-3.35 1.34 -1.7 0.68 0 0 Z " fill="#612C63" transform="translate(167,187)"/>
<path d="M0 0 C0.33 0 0.66 0 1 0 C1.55165303 5.65444353 0.1465863 8.4549309 -3 13 C-5.25 14.4375 -5.25 14.4375 -7 15 C-6.67 14.01 -6.34 13.02 -6 12 C-5.34 12 -4.68 12 -4 12 C-3.86722656 11.42765625 -3.73445313 10.8553125 -3.59765625 10.265625 C-3.00619683 8.02349125 -2.26711146 5.91420381 -1.4375 3.75 C-1.16808594 3.04359375 -0.89867188 2.3371875 -0.62109375 1.609375 C-0.41613281 1.07828125 -0.21117188 0.5471875 0 0 Z " fill="#207DAF" transform="translate(127,138)"/>
<path d="M0 0 C0.33 0 0.66 0 1 0 C1.33 4.62 1.66 9.24 2 14 C0.68 14 -0.64 14 -2 14 C-1.33333333 9.33333333 -0.66666667 4.66666667 0 0 Z " fill="#3D3594" transform="translate(13,106)"/>
<path d="M0 0 C1.32 1.32 2.64 2.64 4 4 C2.68 4 1.36 4 0 4 C0.515625 4.78375 1.03125 5.5675 1.5625 6.375 C2.036875 7.24125 2.51125 8.1075 3 9 C2.67 9.66 2.34 10.32 2 11 C0.35 8.69 -1.3 6.38 -3 4 C-2.01 2.68 -1.02 1.36 0 0 Z " fill="#BB8D23" transform="translate(174,37)"/>
<path d="M0 0 C2.97 0.495 2.97 0.495 6 1 C5.01 1.33 4.02 1.66 3 2 C3 3.32 3 4.64 3 6 C1.68 6.33 0.36 6.66 -1 7 C-0.67 4.69 -0.34 2.38 0 0 Z " fill="#B74849" transform="translate(196,141)"/>
<path d="M0 0 C4.60895683 1.31684481 8.14140235 3.15198745 12 6 C12 6.33 12 6.66 12 7 C9.75 7.25 9.75 7.25 7 7 C4.875 5.0625 4.875 5.0625 3 3 C2.01 2.67 1.02 2.34 0 2 C0 1.34 0 0.68 0 0 Z " fill="#C49134" transform="translate(153,23)"/>
<path d="M0 0 C3 1 3 1 5 4 C7.05003955 5.19232613 7.05003955 5.19232613 9 6 C8.67 7.32 8.34 8.64 8 10 C6.66370254 8.52351062 5.33103329 7.0437367 4 5.5625 C3.2575 4.73878906 2.515 3.91507813 1.75 3.06640625 C0 1 0 1 0 0 Z " fill="#565BAC" transform="translate(26,167)"/>
<path d="M0 0 C1.32 0 2.64 0 4 0 C4 2.31 4 4.62 4 7 C3.67 5.68 3.34 4.36 3 3 C1.02 3.66 -0.96 4.32 -3 5 C-1.75 2.5 -1.75 2.5 0 0 Z " fill="#31839F" transform="translate(161,79)"/>
<path d="M0 0 C0 1.65 0 3.3 0 5 C-0.99 5.495 -0.99 5.495 -2 6 C-2 5.01 -2 4.02 -2 3 C-3.65 3.66 -5.3 4.32 -7 5 C-5.64703851 0.94111554 -4.27479763 0 0 0 Z " fill="#2188AF" transform="translate(164,82)"/>
<path d="M0 0 C3.81684226 1.55500981 6.19195732 4.03595495 9 7 C8.67 7.66 8.34 8.32 8 9 C7.62875 8.0409375 7.62875 8.0409375 7.25 7.0625 C6.21186805 4.80364886 6.21186805 4.80364886 4 4.5 C2 4 2 4 0.75 1.9375 C0.5025 1.298125 0.255 0.65875 0 0 Z " fill="#1B75B3" transform="translate(144,66)"/>
<path d="M0 0 C0.99 0.33 1.98 0.66 3 1 C3 4.3 3 7.6 3 11 C-0.317124 6.577168 -0.30466674 5.28089024 0 0 Z " fill="#4E4BA3" transform="translate(15,141)"/>
<path d="M0 0 C0.66 0 1.32 0 2 0 C2 3.63 2 7.26 2 11 C-0.30694043 7.53958935 -0.62056512 5.09789669 -1 1 C-0.67 0.67 -0.34 0.34 0 0 Z " fill="#464092" transform="translate(11,128)"/>
<path d="M0 0 C0.33 1.32 0.66 2.64 1 4 C-1.4375 6.75 -1.4375 6.75 -4 9 C-4.66 8.67 -5.32 8.34 -6 8 C-4.02 5.36 -2.04 2.72 0 0 Z " fill="#2C62A1" transform="translate(32,84)"/>
<path d="M0 0 C0.33 0.99 0.66 1.98 1 3 C1.99 3.33 2.98 3.66 4 4 C4 5.32 4 6.64 4 8 C1.525 7.01 1.525 7.01 -1 6 C-0.67 4.02 -0.34 2.04 0 0 Z " fill="#6E8D70" transform="translate(167,61)"/>
<path d="M0 0 C2.5 1.25 2.5 1.25 5 3 C5 4.32 5 5.64 5 7 C4.34 7 3.68 7 3 7 C3 6.34 3 5.68 3 5 C2.01 4.67 1.02 4.34 0 4 C0 2.68 0 1.36 0 0 Z " fill="#C7870B" transform="translate(186,55)"/>
<path d="M0 0 C0 2.31 0 4.62 0 7 C-1.32 6.34 -2.64 5.68 -4 5 C-3.625 3.0625 -3.625 3.0625 -3 1 C-1 0 -1 0 0 0 Z " fill="#A6902F" transform="translate(170,46)"/>
<path d="M0 0 C1.9375 0.6875 1.9375 0.6875 4 2 C4.75 4.625 4.75 4.625 5 7 C5.66 7 6.32 7 7 7 C6.67 7.99 6.34 8.98 6 10 C3.47650757 6.87567603 1.72743854 3.61939504 0 0 Z " fill="#BD9630" transform="translate(160,37)"/>
<path d="M0 0 C0.33 0.66 0.66 1.32 1 2 C1.99 2.33 2.98 2.66 4 3 C3.67 3.33 3.34 3.66 3 4 C3.66 4.66 4.32 5.32 5 6 C3.68 6.33 2.36 6.66 1 7 C-0.0625 5.1875 -0.0625 5.1875 -1 3 C-0.67 2.01 -0.34 1.02 0 0 Z " fill="#3E39AD" transform="translate(86,201)"/>
<path d="M0 0 C1.32 0 2.64 0 4 0 C5.8125 2.375 5.8125 2.375 7 5 C6.67 5.66 6.34 6.32 6 7 C3.95880212 5.38405168 1.95927063 3.7143618 0 2 C0 1.34 0 0.68 0 0 Z " fill="#326A9E" transform="translate(101,173)"/>
<path d="M0 0 C0.66 0 1.32 0 2 0 C2 2.31 2 4.62 2 7 C-0.475 6.01 -0.475 6.01 -3 5 C-1.625 2.5 -1.625 2.5 0 0 Z " fill="#C34C40" transform="translate(199,134)"/>
<path d="M0 0 C0.33 0.99 0.66 1.98 1 3 C1.66 3 2.32 3 3 3 C2.34 4.32 1.68 5.64 1 7 C0.01 6.67 -0.98 6.34 -2 6 C-2 4.35 -2 2.7 -2 1 C-1.34 0.67 -0.68 0.34 0 0 Z " fill="#BF7518" transform="translate(202,91)"/>
<path d="M0 0 C0.66 0 1.32 0 2 0 C3.42944945 2.35438733 4.08661261 3.48032433 3.625 6.25 C3.41875 6.8275 3.2125 7.405 3 8 C0.37613513 4.93882432 0 4.26826873 0 0 Z " fill="#C7850A" transform="translate(191,63)"/>
<path d="M0 0 C0.99 0.99 1.98 1.98 3 3 C2.67 3.66 2.34 4.32 2 5 C1.34 5 0.68 5 0 5 C-0.33 5.99 -0.66 6.98 -1 8 C-1.99 6.35 -2.98 4.7 -4 3 C-2.68 3.33 -1.36 3.66 0 4 C0 2.68 0 1.36 0 0 Z " fill="#C68F2D" transform="translate(183,47)"/>
<path d="M0 0 C2.78388975 1.70625501 3.85384206 2.47626739 4.75 5.6875 C4.8325 6.450625 4.915 7.21375 5 8 C4.01 8.495 4.01 8.495 3 9 C0 3.375 0 3.375 0 0 Z " fill="#2665AF" transform="translate(105,172)"/>
<path d="M0 0 C0.99 0 1.98 0 3 0 C2.67 2.31 2.34 4.62 2 7 C1.34 7 0.68 7 0 7 C0 4.69 0 2.38 0 0 Z " fill="#C2701E" transform="translate(203,101)"/>
<path d="M0 0 C1.65 0.99 3.3 1.98 5 3 C4.34 4.32 3.68 5.64 3 7 C0 3.375 0 3.375 0 0 Z " fill="#1F7AAF" transform="translate(93,161)"/>
</svg>
